<?xml version="1.0" encoding="utf-8"?>
<!-- Svg Vector Icons : http://www.onlinewebfonts.com/icon -->
<!DOCTYPE svg PUBLIC "-//W3C//DTD SVG 1.1//EN" "http://www.w3.org/Graphics/SVG/1.1/DTD/svg11.dtd">
<svg version="1.1" xmlns="http://www.w3.org/2000/svg" xmlns:xlink="http://www.w3.org/1999/xlink" x="0px" y="0px" viewBox="0 0 1000 1000" enable-background="new 0 0 1000 1000" xml:space="preserve">
<metadata> Svg Vector Icons : http://www.onlinewebfonts.com/icon </metadata>
<g><g><g id="_x32__17_"><g><path d="M241.1,596.3c-0.4-1.5-1.1-2.9-1.4-4.4h-61.3c3.4,18.3,8.3,36,14.6,53.1L241.1,596.3z M515.3,10c-118.4,0-214.4,96-214.4,214.4l-0.1,315.7L714,144.8C682.3,65.9,605.5,10,515.3,10z M839.2,102.2L116.8,793.9l43.7,43.2l722.6-691.3L839.2,102.2z M515.3,806.2c-59.4,0-115.3-19.5-161.8-51.5l-43.1,43.6c50,37.1,109.7,62,174.3,67.8v62.6H454c-16.9,0-30.6,13.7-30.6,30.6c0,16.9,13.7,30.6,30.6,30.6h122.5c16.9,0,30.6-13.7,30.6-30.6c0-16.9-13.7-30.6-30.6-30.6h-30.6v-62.6c151.2-13.6,279.2-127.3,306.2-274.2h-61.2C763,714.6,646.4,806.2,515.3,806.2z M729.6,530.6V369.5l-345,330c36.3,28.1,81.2,45.5,130.6,45.5C633.6,745,729.6,649,729.6,530.6z"/></g></g></g><g></g><g></g><g></g><g></g><g></g><g></g><g></g><g></g><g></g><g></g><g></g><g></g><g></g><g></g><g></g></g>
</svg>