<svg xmlns="http://www.w3.org/2000/svg" width="496.001" height="471" viewBox="0 0 496.001 471">
  <g id="Group_142" data-name="Group 142" transform="translate(-295 -93)">
    <g id="Group_141" data-name="Group 141">
      <g id="Group_130" data-name="Group 130">
        <path id="Path_12" data-name="Path 12" d="M488.373,563.943a17.783,17.783,0,0,1-10.249-4.292C366.76,463.325,288.48,388.382,295.428,300.865c5.112-64.375,56.043-130.226,129.394-124.373,47.05,3.755,75.33,29.414,90.4,49.28,18.014-17.226,49.969-38.078,97.02-34.323,73.35,5.853,113.25,78.953,108.139,143.328-6.948,87.508-96.068,149.1-221.211,226.553A17.768,17.768,0,0,1,488.373,563.943Z" fill="#e0384d"/>
      </g>
      <g id="Group_131" data-name="Group 131">
        <path id="Path_13" data-name="Path 13" d="M612.242,191.449c-2.254-.18-4.462-.286-6.647-.356,31.332,28.371,46.92,73.733,43.609,115.441-6.731,84.776-90.585,145.231-209.6,219.347q18.461,16.484,38.521,33.77a17.82,17.82,0,0,0,21.046,1.679c125.143-77.452,214.263-139.045,221.211-226.553C725.492,270.4,685.592,197.3,612.242,191.449Z" fill="#d13049"/>
      </g>
      <g id="Group_132" data-name="Group 132">
        <path id="Path_14" data-name="Path 14" d="M626.208,193.448c38.8,27.005,58.535,77.968,54.848,124.4-6.939,87.407-95.865,148.96-220.782,226.287q8.773,7.672,17.85,15.519a17.82,17.82,0,0,0,21.046,1.679c125.143-77.452,214.263-139.045,221.211-226.553C725.157,274.616,690.619,206.841,626.208,193.448Z" fill="#c12745"/>
      </g>
      <g id="Group_133" data-name="Group 133" opacity="0.49">
        <path id="BGD1806" d="M512.595,359.352l1.747,1.253.379,1.052-1.663-1.173-.906-.344-.252.546-.821.385-.863-.243-.821-.586-1.432-1.436-.484-.688.126-.424h1.2l1.642.566,2.148,1.092Zm17.979-86.544-.127,2.083.674,2.1-.021.647-.147.465-.485.708-.4.809-.505,1.739,2.969,4.751,1.3.567,5.41-.546.59,2.163.316.991.168,2.143-.337,2.508.295.869.253.1.821-.1,1.389.061.484.222.253.364.189.587-.021.364-.484.808-.063.91-.147.263-1.053.506.021.364.568.687.232.506.526.5.821.425-.631,1.6-.484.89-.4.546-.442.425-.043.343.358.4.337.2.505.04.548.243.252,1.132-.063.587-.758.525.99.85.526.667.084.364-.231.445-.316.1-.505.526.631.95-.989.667-1.537.668-.674,1.637-.358.324-.357.566-.59.4-.779.262-.884.081-.4.223v.485l.084.546-.126.384-.316.041-.337-.122-.61-.465-1.516,2-1.032.344-.273.162.189.93-.063.222.821,1.132-.337.688.884.505-.337,1.011-.884.971-.737.445-.526.485-.4,1.132.19.91-.232,1.173-.926,2-1.727,2.3-.631.506-.421.222-.527-.141-1.347-.85-.884.4-.358.04-1.39-.061-.61.162-.59.445-.442.627-.021.384.253,1.031-.063.708-.927,2.346-.715,1.051-.085.425.148.3.652.445.464.526.1.343-.042.344-.337.647-.4.384,1.2,1.193.4.546-.1.243-.7.081-.547.263-.19.4.337.546-.463.485-1.011.627-.4.587-1.1-.021-.126.2.4.444.821.627-.316.991-.8-.445-.505-.06-.863.505-1.158.364-.653.425-.21-.162-.7-1.881.19-1.354.737-1.113,1.136-.505-.358-.081-.252.081-.358-.465-.758.081-1.663.667.253.667-.232.4-.547.2-.716.061-.758-.061-.59-.2-1.157-.708.357.728.653.485.737.283.758.122,1.684.06.379.385.105,4.266-.147.526-.358.283-.358.687-.295.85-.084.748-1.516-.627-8.9-1.678-1.726-.607-1.558-.991-.042.546.421.526,5.894,3.437.716.567.421.586.295.586.4.465,1.432.3,1.263.606.716.243,2.968.323.379.3,1.326,1.961.211.789.147,1.678-.526-.748-.421-.425.231.93.19,2.811-.169,1.132-1.221,1.7-.294.283-.548-.142-.1-.384.211-.465.442-.344v-.323h-.316l-.505.667-.506.465-.631.324-.863.2-1.706-.061-.568.223-.211.788.042.3-.484.707-.779.445-1.2-.546-.61-.566-1.032-.768-1.473-.324-.674.263-.505.324-.4.768.442.081.694-.1.379.242.021.829-.4.769-.336.3-.506.789-.442.3-.673.081-.527-.2-.652-.445-.885-1.031-.252-.789-.106-1.193-.147-.384-.274-.364-.379-.162-.505-.081-2.231.4-.421.728-.337.889-.863.445-.758.748-.379.566-.885.809-.252.3-.632,1.314-1.137,1.516-1.073,1.072-.632.324-.779.161-1.621.263-1.874-.95-.336-.3-.927-1.011-.968-.466-.253-.2-.189-.323-.253-.87-.21-.445-.59-.788-1.474-1.294-.715-.829-1.116-2.285-.442-.647-.358-.2-.779-.142-.379-.324-.337-.647-.084-.444.042-.526.9.728.463.161.337-.667.7-.97.295-.2.568-.182.148-.424-.253-.445-.653-.243-.526.122-.779.586-.568-.061-.674-.849.147-.97-.1-.829-2.421-.627.379-.708.9-.849.526-.748-1.368.04-1.137-1.294-.674-1.8.043-1.516h.336l.337.424.59.263-.863-3.923-.4-.97-.906-.809-1.389-.728-1.326-.141-.737,1.031-.3-.607.021-.687.9-.647.421-.465-.273-.223-.464-.222-.273-.506-.19-.606-.294-.465-.569-.627-2.695-3.883-.484-.222-.589.04-.758.223-1.3.081-1.874-2.3-.126-.425,2.357-5.9.043-.971-.085-.384-.652-1.881,1.494.971,4.064,1.678,1.031.587,1.832,1.6,1.158.222.8-.242,1.368-.87.737-.283,2.526-.222,1.032-.263v-.566l-.463-2.224-.127-.708.19-1.052.589-1.476,3.895-3.114.569-.505.421-.667.336-.647.127-1.7.442-.809-.126-.081.084-.687.189-.688-.21-.505.084-.445-.169-.445-.821-.2-.063-1.294-.631-.526-1.685-1.779-.042-.4.021-1.88-.273-1.84V310.6l.421-3.437.042-1.8.379-1.5.063-.95-.042-.89-.126-.586.231-.526.505-.587.337-1.213v-.606l-.231-.931.063-.525.5-2.184-.021-1.011-.232-.89-.294-.5-.379-.445-.821-.748-1.348-.688-.779-.505-.463-.486-.61-1.172-.4-.951-1.1-5.217-.063-.4.252-4.044.422-2.548.61-2.588,1.011-2.083.421-.647.547-.606.674-.951.252-1.213-.4-2.629,1.032-2.386.4-.707.653-.4.757-.141-.189,1.4.147,1.638.4,1.718.527.951.715.121,1.621-.627,1.727-.06,10.084,4.1,7.137,1.537,3.537,1.436,1.6.06,4.61-.95,3.727.324,1.831-.465.632.02.526.161.99.425,1.684.283.379-.02.273-.142.485-.505.231-.121.737.08.59.344.568.425.653.3,1.284.162,5.116-.688Z" fill="#fff"/>
        <path id="BGD2432" d="M449.184,435.542l-.547.829-1.369-.707-2.316-2.649v-.2l.274-.284.295-.889-.021-.91-.442-1.557-.127-.728-.3-.829.043-.445.547-.02.189.121.274.506.169.667.442,3.154.526,1.4,1.053.586,1.052.667.253,1.294ZM458.3,332.155l.652,1.881.085.384-.043.971-2.357,5.9.126.425,1.874,2.3,1.3-.081.758-.223.589-.04.484.222,2.695,3.883.569.627.294.465.19.606.273.506.464.222.273.223-.421.465-.9.647-.021.687.3.607.736-1.031,1.327.141,1.389.728.906.809.4.97.863,3.923-.59-.263-.337-.424h-.336l-.043,1.516.674,1.8,1.137,1.294,1.368-.04-.526.748-.9.849-.379.708,2.421.627.1.829-.147.97.674.849.568.061.779-.586.526-.122.653.243.252.445-.147.424-.568.182-.295.2-.7.97-.337.667-.463-.161-.9-.728-.042.526.084.444.337.647.379.324.779.142.358.2.442.647,1.116,2.285.715.829,1.474,1.294.59.788.21.445.253.87.189.323.253.2.968.466.927,1.011.336.3,1.874.95.674.607.842,1.435-.632.486-.463-.02-.274.121-.315.566.021.283.294.283-.084.364-.673.344-.169.344v.343l.19.425.4.222.21.223-.231.4-1.39.89-.4.465v.243l.3.141,1.137.122.4.121.231.344-.042.667-.316.121-.442-.162-.5.2.021.2.484.425.316.4.505,1.436.737.525.274.243.358,1.031.021.587-.1.707-.4.85-.169.748.19.4.715.364.232.344.379,1.092-1.453,1.435-.631.769-.253.748-.358.748-.779-.222-1.368-1.052.084.991.253.809.168.809-.168,1.011-1.895,3.518.547.991.484,1.678.527,3.175.063,1.638-.147.808-.379.607-.758.4-.653-.081-.716-.181h-.863v.343l.969.4.8.505.547.728.189,1.112-.042.445-.231.849v.506l.189.424.611.931.379.909.442.526.252.607-.315.748-.337.121-1.011.182-1.158,1.011-.505.728-.421.243-.842.3-.484.081-.211-.243-.231-.667-.569.142-.7.445-.568.242-.758-.04-.842-.182-.779-.3-.547-.424-.379-.87-.021-.525.484-.809-.084-.465-.653-.89-1.284,2.588.526.87.884,1.172,1.011,1.052.9.445.4.465-.484.93-.99.667-1.115-.283-.569-.344H470.8l-1.116.2-.126.263.505,1.253.084.4-.863.849-.968-.587-1.284-1.9.063-.829-.506-1.941.127-1.072.358-.607.842-.95.358-.728.147-.789-.189-3.4.336-2.75.253-.95,1.1-1.881.231-1.031-.147-.991-.4-.99-.568-.89-.611-.688-.021-.667,1.389-1.759.358-.789.063-1.011.148-.97.295-.93.442-.829-.506.364-.421.606-.631,1.294-.527.506-.168.424.421,1.092-.274.4-.884.647-.526.829.042.627.947,1.617.358,1.032.021,1.071-.105.566-.463.91-.105.465-.379,2.993-.211.688-.863.444-.358-.728-.063-2.1.126-.485.463-.991.043-.606-2.064-4.691-.1-.971.211-2.1-.064-.95-.442-1.011h-.336l-.379,3.114.379,5.965h.336l.042-.668.211-.606.379-.2.21.97.232.587.274.4.252.526-.042.687-.379,1.193-.231.223-.548.1-.063.485.295.485.168.526.548,1.153.337.424.084.324-.421,2.507-.484.546-.59.425-.61.546-.506.829-.042.667.148.768.126,1.153-.169,1.072-.442.889-.61.748-1.663,1.375-.506.041-1.158-1.254-.252-.708-.063-1.213.147-2.123.232-.849.61-1.436.105-1.112-.189-.95-.842-1.577-.211-.809h-.337l-.273.707.126.607.3.586.189.668v.748l-.168.425-.758.748-.463.566-.295.485-.737,1.739-.231.384-.232.02-.253-.626h-.294l.021,1.193.463,1.84-.19,1.152-.757,1.618.126.526.947.444-.526.587-.779.546-.9.384-.884.1-.864-.485-.273-.87.168-.849.484-.364.085-.526-1.411-3.842-.084-.95-.19-.2-.421.263-.442.465-.189.425-.274.2-.589-.162-1.011-.506-.463-.384-.19-.3-1.137-3.842-.084-.789.106-.97.484-1.982.021-1.092-.316-.99-1.011-1.335-.21-.748.274-2.164-.148-.869.8-1.011-.084-1.133-.253-.93-.378-.788-1.979-2.508-.443-.99.653-.445-.737-1.254-.252-.566-.548-2.528v-.445l.127-.485.378-.627.085-.384-.19-1.092-.842-1.88-.4-1.739-.547-.425-1.411-.526,1.011-.667.273-1.092-.189-1.274-.442-1.213-.569-.991-.168-1.051-.168-.607-.548-1.375-.105-.849.316-.647.505-.607.484-.728.211-.626.168-.93.084-.91-.105-.647-.526-.466-1.263-.4-.527-.627-.968-2.224-.484-.748-.863-1.052-.19-.525.042-.93.421-1.355.105-2.447.632-1.193,2.463-2.527,1.221-.991.4-.445.232-.506v-.384l-.253-.222-1.242.04-.8-.283-3.179-1.072-.758-.141-.61.081-.695.525-.358.182-.484-.02-2.99-.93L428.8,364l-.442-.91-.042-1.031.421-.93,1.094-1.7,2.211-5.662.105-1.011-.61-.485-.59.444-.526.809-.568.2-.674-1.273-.505-.223-1.327-.89-.758-.788-1.073-1.86-.674-.708-.358-.081-.9.1-.463-.182-.442-.465-.022-.324.148-.364.084-.586-.232-.182-.463-.1-.421-.2-.084-.526.968-4.347-.063-.445-.337-.728.022-.445.21-.505.674-1.032.231-.546V336.6l-.147-.87.147-.465.737-.546.884-.04.948.081.863-.182.61-.465,1.727-1.638.442-.546.147-.849-.126-1.032-.274-.91-.316-.566.569-.93.526-.667-.021-.465-1.095-.243-.147-.606-.863-.708-.211-.546.063-.445.274-.991.063-.566-.21-.971-.021-.465.273-.586.443-.425,1.01-.364.716-.323.21.728.716,1.051.3.243,1.1.566.673.465.358.182.884.142.843-.182,2.926-1.335.61-.4.464-.587.9.061.821.4.358.283,1.052,1.355,1.664,1.537.4,1.193.926,1.132.189.425v.505l-.21,1.052.126.425.442.505,1.748,1.456.968.607.99.444,1.242.223,3.768-.384,1.221.1,1.137.242,1.074.445Z" fill="#fff"/>
        <path id="BGD2475" d="M514.931,426.322l-.442,1.072-.379-.243h-.315l-.379.95-.758,1.011-.884.688-.8-.061v-.344l.9-.263.358-.06-.611-.769-.337-.222.3-.3-.084-.809.126-.485.379-.567,3.053-2.022v.971l.337.546.252.748-.716.162Zm-11.747,4.044-.421.263-.211-.122v-2.183l.19-1.133.442-1.031.99-1.8.778-.849,1.053-.242-.168,1.031-1.137,1.86-1.1,3.68-.421.526Zm.611-5.783h-.274l.274-1.011.589-1.375.7-1.072.61-.121-.294,1.173-1.285,1.415-.315.991Zm3.915,3.033-.736.344-.611-.3-.358-.687v-.809l.253-.667.294-.506.253-.586.105-.991-.105-1.5.169-.445.589-.465,2.042,2.1.569,1.253-.443,1.5-.968.566-1.053,1.193Zm8.253-12.072-.905,2.892-.084-.769-.253-.545-.526,1.617-.274,1.8-.4,1.617-.968,1.113-.864.242-.463-.222-.21-.506-.042-.647.231-.424,1.621-1.355-.273-.324-1.958,1.112-.253.486h-.274l.085-1.112.273-1.032.527-.748.8-.3.568-.344,1.221-1.314.568.02.379-.546.548-.505.526-.283.4.08Zm15.495-2.082.1.424v2.548l-.337,1.112-.905.223-.463-.728.063-1.315.316-1.415.379-1.052.273.344.253-.3Zm1.537.606-.527.445.021-2.527.274-.931.632.263.042.87-.127,1.011-.315.869Zm.1-4.064-1.7,2.568-.716-.283.147-.647.463-.809.274-.647.169-2.143.273-1.153.463-.768.337.364.253.707.189.87.042.97L533.1,410Zm-16.232-7.1.653,1.152.505,1.314.1,1.113-.505-.971-.1-.344-.337.829.295,1.881-.295.829-.231-.425-.085-1.516h.316l-.3-.85-.336-1.84-.295-.849-.274-.182-.568-.02-.106-.627.106-.283.294-.1.548.243Zm.927.02-.274.3.274-2.77.336.162.19.505.084.506.021.93-.631.364Zm7.915,13.163-2.4,3.6-.8.667-.336-.667-1.032,1.051-.442.243-1.179,1.961-1.537.667-.463-.06-.379-1.032.547-1.354.842-1.436.548-1.294-2.548,3.559-.715.141-.295-.93.189-1.335.506-1.375.652-1.031-.505-1.031.442-1.739,1.9-3.983.231-.769.148-.91v-2.77l.274-.809-.358-1.4-.106-.93.19-.566v-.3l-.505-.87-.548-2.871-.505-1.133-.737-.626L514.216,395l-.737-.2-.211-1.739.106-1.658,1.01-3.882.316-.526.484-.344.779-.3.8-.182.884-.1.463,1.415.506,1.679.568,1.314.779,1.537.653,1.132.715.829.716,1.112.337,2.3.569,1.456,1.073,1.052,2,1.759.927,1.112-.906,4.489.042,7.623Zm-10.063-34.273.927.95.842.364.842.971.652.97-.715.142-1.558-.3-1.684-.1L513.626,386l-.695.243-.694.687-.085,1.173.232.748-.632.809-.442-.526-.589-.525-.063-.445-.169-.485-.463-.3-1.221-.364.379-.546.063-.424-.147-1.315.042-.869.126-.829.337-.647.611-.243,1.558.263.736-.1.316-.647.379-.061h1.79l.652.223Zm1.769-4.631,1.01.748v.283l-1.179.041.148.3.442.4.358.444.231.466-1.431-.162-.4-.162-.337-.364-.548-.95-.4-.3-.463-.141-.337.263-.4.161-.505.061-1.221.02-.484-.081-.716-1.071.9-1.517,1.516-1.193,1.116-.1.968.789,1.727,2.062Zm-7.621-1.779-.379.222-.379-1.941L508.8,373h1.748l.736-.283.3.465-.063.343-.7.668-1.031,1.213Zm-1.264-1.759.211,1.031.632,1.5.842,1.416.9,1.152.105.243-.063.546.126.344.485.121.673.566.19.344-.232.445-.7.323-.673-.081-.653-.161-.653.06-.863,1.052-.421,1.577-.547,1.314-1.284.283.737.627-.19.627-.61.243-.548-.546-.989.626.673.486,1.285.424.884.425.421-.87.779.142.8.647.484.708.147.485.169,1.476.547,1.537.19,1.638-.127.344-.442.566-.4.222-1.052.142-.421.263-.253.707-.526,2.629.126.2.589-.485.211-.3.042-.485-.126-.95.084-.506.463-.647.674-.384.8-.121.863.162,1.621.97.821,1.355.547,1.577.758,1.638-.926-.344.021,1.072.316.849.905,1.678.232.951.042.991-.274,1.941-1.453,3.619-1.073,1.638-.884.2-1.222.647-.463.4-.21.424-.1.647-.274.728-1.3,2.2-.443.526-.505.222-.61-.141-.779-.324-.653-.424-.3-.364.274-1.173,1.1-2.244.189-1.133-.526-1.334-.105-.627.294-1.476-.147-.587-.758-.182.19.971-.442,2.1.084.667.379.324.526.3.168.465-.063.364-.21.324-.59.667-.126.667-.4-.141-.168.1-.127.485-.147,1.456-.379,1.011-.821,1.213-.7.809-.21.829-.864,1.719-.189.869-.211,1.8-.421,1.759-.358.91-.463.627-2.5,2.062-.632.425-.863.162-.926-.142-1.7-.687-.8-.162-.737-.384-.19-.769.3-.606.779.161-.337-.667.274-.465.442-.425.253-.566-.211-.667-.253-.182-.8,1.921-.442.4-.421.142-.568.627-.421.2-.379-.081-.59-.485-.547-.061.316-1.254.126-2.547.484-1.072.421-.344,1.053-.687.4-.567.211-.728.252-1.152.421-.667,1.874-1.638.8-1.153.4-.182,1.011.364.947-.647.716-1.051.337-1.274-.148-1.254-.8,2.042L497.437,417l-.653.465-1.221.162-.737.425-2.716,2.81-.315.486-.358,1.011-.59.869-.147.344-.232.222-.652.1-.464-.06-1.452-.567.274-.667.042-.708.358-.566.421-.364.4-.182.294-.323.127-.728-.169-1.416.211-.525.168-.708.421-.465.505-.223.422-.283.273-.566-1.179.4-.568.808-.716,2.326-.4.526-1.221,1.152-.274.4.106,2.124-.106.606-.673.566-.821-.283-.7-.808-.3-.91-.084-.465-.4-1.072-.126-.566-.106-3.478-.421-1.941-.105-1.193-.1-.445-.59-.91-.231-.465-.169-.607-.063-.505.232-1.133.9-2.163,3.747-5.258.253-.586.168-.566.274-.526-.7.364-.147.142-.379-1.092-.232-.344-.715-.364-.19-.4.169-.749.4-.849.1-.708-.021-.586-.358-1.031-.274-.243-.737-.526-.505-1.435-.316-.4-.484-.424-.021-.2.5-.2.442.162.316-.121.042-.667-.231-.344-.4-.122-1.137-.121-.3-.141v-.243l.4-.465,1.39-.89.231-.4-.21-.223-.4-.222-.19-.425v-.343l.169-.344.673-.344.085-.364-.3-.283-.021-.283.316-.566.273-.122.463.021.632-.486-.842-1.435-.674-.607,1.621-.263.779-.162.632-.323,1.073-1.072,1.137-1.516.632-1.315.252-.3.885-.809.379-.566.758-.748.863-.445.337-.89L494.6,373l2.231-.4.505.081.379.162.274.364.147.384.106,1.193.252.788.885,1.032.652.445.527.2.673-.081.442-.3.506-.789.336-.3.4-.769-.021-.829-.379-.242-.694.1-.442-.081.4-.769.505-.323.674-.263,1.473.324,1.032.768.61.566,1.2.546.779-.445.485-.707Z" fill="#fff"/>
        <path id="BGD2476" d="M576.216,436.7l1.642,3.094.421,1.86-.1.991-.421,1.981-.106,1.052-.4.829-1.01.04-1.137-.2-.884.121v.263l.21.344.021.364-.547.283-.484-.04-.4-.263-.253-.384-.189-.83-.148-.323.021-.344.7-.991.126-.485.022-1.112-.232-1.9-.968-3.134.252-1.739.442-.93.421-.425.506.041.652.5.232.607-.211.728-.337.748-.147.647.716-.829.274-1.132-.043-1.193-.336-1.052.821-.1.736-.2v.991l.148,2.123Zm-4.442-.971-.379.445-.379-.788.716-3.9-.337-2.406.168-.809.337-.607,1.074-1.172.252.283.064.384.547,1.759.063.667-.147.748-.632,1.193-.358,1.638-.989,2.568ZM537.289,418.5l-.863.545-1.137-.06-.715-.182-.527-.344-.273-.687,1.3-1.517.842-1.254.316-.788.4-2.285.042-3.316.274-3.68.779-.122,1.579.789.989.829.358,1.173.674.606.463,1.7.021,1.092.21,1.536-.737,1.436-.442.728-.884,1.678-.926.749-.653.424-.589.121-.506.829ZM540.8,402l-1.158.06-.926-.566.442-1.314,1.6-.667,1.874-.526.484.91-.442,1.092-.947.606-.927.4Zm17.979,2.3-2.168.242-1.432-.768-1.347-1.9-.758-1.88-.274-1.517,1.053-2.406.947-.485,4.042,5.116.316,2.022-.379,1.577Zm-11.221-75.584-.758-.121-.8.323-.61.526-.463.627-1.558,2.669-.19.667.021.647.527,1.112.189.607-.147.89-.906,2.608-.463.789-.842.4-.863.081-.716.243-.421.909.19,1.032.715.384.758.263.274.728-.4.768-.632-.04-.568.06-.168,1.153.21.829,1.326,2.386.337.849.379,1.557.421.789.379.343.8.466.3.444.1.364.211,1.173.61,2.022.463.971.59.424.589.142.148.283-.19.384-.463.425-.316.445.085.364.442.869,1.052,7.664.59,1.961,1.094,1.415,1.516.385.169-1.557-.842-3.984-.021-2.123.252-1.112.505-.667,1.011-.041.863.668.674.909.358.647.168-.363.295.384v.829l.674.647h.105l.316,1.476.21.485,1.053,3.478.231,1.213.127.142.421.121.126.162.063,1.415.19.486.589.627.59.222.61.121.632.283.273.526v.465l.148.162.737-.4.273-.343.379-.85.4-.161.969.242.947-.283,1.221-.263.569-.343.336-.364.758-.688.316-.344.779-1.112.042-.647.211-.182.694.02.7-.727.19-.425-.169-.566-.589-1.456-.674-3.256-.674-1.516-.252-1.9.863-2.345,1.326-2.225,1.179-1.536.737-.627,2.505-1.052.737-.505.59-.627,1.031-1.678.063-1.881-1.2-5.52-.063-1.82.084-1.031.295-.607.632-.04.568.667.569.89,1.894,2.083.716.343,1.053-.263.779-.667,1.494-1.981.737-.809,1.916-.647.905,1.334.463,1.82.611.829.7-.647.568-2.2.758-.425.947.486.106,1.031-.527,2.022.127,1.6,1.726,5.419.274,2.326.21.708.232.384.589.546.253.4.084.364-.084.667.063.324.232.3.589.465.19.243.042.424-.127.931v.485l.232.789.21.465.043.485-.316.849-.821,1.638-.19.728-.042,1.88,1.158,6.734-.042,3.3.358,1.6.842,1.234,1.516.606.652.789.4,3.7.316,1.436.547.707,1.222,1.032.484.707.21.728.316,3.66-.105,2.73.168.809.59,1.476.063.809,2.652,15.428-.063,1.193-.526.243-.674-.021-.547.465,1.032,3.175.589,3.114.126.829.653,2.851.126,1.415-.779,7.2.653,11.2.126,1.193.484,2.346,1.622,4.772.168.95-.421.748-.884.89-1.053.687-.926.061-.548-.586-.315-.971-.358-1.88-.885-1.9-1.157-.243-1.516.3-1.937-.182-1.032-.343-.484-.243-.379-.4-.316-.809-.1-.789-.189-.768-.59-.768-1.474-.486-1.726,2.022-1.431-.02-.758.1-.506.93-.61,2-1.284,1.759-.232.829-.021.91.337,1.86-.063.91-.4,2.124.252.829.337.647,1.074.97.568,1.416,1.853,1.516-.295,1.8-.063,1.941.19,1.9.484,1.718,1.3,1.921.211.486.1.889.842,2.447.316.607.147.485-.1.505-.379.364-.295-.161-.231-.324-.59-.607-1.053-2.426-3.094-5.459-.779-3.034-.295-.485L585.1,468l-.442-.607-.737-1.375-.505-.748-2.021-2.285-.316-.768-.063-.991.379-3.013-.084-1.132-.253-.89-2.505-4.448-.442-.445-.485-.263-.442-.687-.316-.829-.147-.769h.274l.358.283.336-.829.548-.889.737-.506.842.3-.569-.525-.442-.85-.252-.99v-.87l.4-.526.631-.566.421-.667-.189-.789.7-.788.126-.344-.19-.465.274-.445-.084-.4-.337-.3-.253-.1.295-.91-.168-.1-.611,1.618-.526.667-.758-.02-.358-.546.126-.748.253-.748-.021-.546h-.316l-.231.808-.421-.06-.422-.566-.168-.688.147-1.051.4-.263.59-.121.7-.627-.274-.324-.758.526-.316-.384.274-.708,1.074-.425v-.323l-2.106.162-1.6.485-.421-.4.085-1.112.463-1.011.821-.4-.358-.485.189-.445.485-.364.61-.283v-.344l-.484.04-.421.223-.358.323-.274.425-.252-.586-.211-.971-.21-1.86-.127-.465-.652-.708-.148-.425v-1.779l-1.158-4.813-.084-1.637.484.2-.084-.526-.4.081-.337.607v.909h-.273l-.485-.808-.463-1.032-.273-1.152-.043-1.173.211-.728.821-.809.232-.424-.064-.769-.4-.4-.484-.2-.316-.263-.147-1.173.8-.566,1.179-.344.989-.505.485-.829,1.052-3.357H573.9l-.105.708-.442,1.82.084.364-.316.262-.526.546-.674.546-.8.263-.147.243-1.116.586-.337.465.126.748.485.364.568.2.421.3-.021.91-.779.566-.989-.081-.695-1.051-.8-5.4-.484-1.719-3.074-5.844-5.811-7.845-1.452-.566-.8-.708-.632-.849-.358-.748-.358.182-.294-.223-.211-.485-.084-.607.1-.566.421-.586.295-1.375.716-2,.021-1.132H555.5l-.147.889-.779,2.467-.464.526-.989.3-.632.769-.231,1.051.147,1.132-.7-.505-.673-.3-.758-.142-.99-.04v.343l.969.283.1.445-.442.4-.8.2-2.358.04.821.263.737.324.358.283-.126.687-.59.4-.758.182h-.779l-1.389-.283-.358.04-.063-.182v-.849l-.569-.2-.673-.081-1.558-.021v.3l.568.485.211.526-.316.344-1.053-.041v.344l2.632.667,1.2.485.505.951-.147.606-.358.668-.526,1.819-.927.85-.842.667-1.2.324-2.232.444-1.726-.829-.9-1.274-.484-2.022-.463-.566-.485-.829-.505-1.456-.379-.4-.674.2.674.667.632,1.315.358,1.375-.106.91-.926.444-1.474.223-1.368-.061-.611-.485-.273-.647-1.242-.87-.3-.424-.148-.425-.652-.869-.358-1.355-.505-.2-1.327.1-.21-.263-.548-1.7-.357-.283-.758-.424-.295-.85-.653-.889-.147-.324-.063-.485-.548-1.294-.336-1.618-.358-.829-.421-.708-.337-.788-.127-1.072-.231-.586-3.516-4.61-.484-1.254-.105-.546v-.526l.526-2.891.063-1.962.253-1.051.505-.91.379-.89-.19-.889h.3l-.758-1.557-.042-.627.505-.4-.357-.121.021-.243-1.158.385-.758-.991-.442-1.416-.127-.91.064-2.79.378-1.092,1.116-.667,2.653.02,1.074-.566.021-1.759-.211-.647-.4-.283.4-.587,1.011-.627.463-.485-.337-.546.189-.4.548-.263.7-.081.1-.243-.4-.546-1.2-1.193.4-.384.337-.647.042-.344-.106-.343-.463-.526-.652-.445-.148-.3.085-.425.715-1.051.927-2.346.063-.708-.253-1.031.021-.384.442-.627.59-.445.61-.162,1.39.061.358-.04.884-.4,1.347.849.527.142.421-.222.631-.506,1.727-2.3.926-2,.231-1.173-.189-.91.4-1.132.526-.485.737-.445.884-.971.337-1.011-.884-.505.337-.688-.821-1.132.063-.222-.19-.931.274-.161,1.032-.344,1.516-2,.61.465.337.121.316-.04.126-.384-.084-.546v-.485l.4-.223.884-.081.779-.263.589-.4,3.748,1.881,1.137.2,1.515-1.213.632-.284.526-.08.569.222v.323l-.8.668-1.242.728-.295.323.274.344,1.094.3.295.263-.295.162-.989.2-.316.142-.337.343-.021.809.337.728.211.809-.043.607.148,1.193.463,1.617.653.809-.021.425-.19,1.112Z" fill="#fff"/>
        <path id="BGD2488" d="M547.563,328.718l.19-1.112.021-.425-.653-.809-.463-1.617-.147-1.193.042-.607-.211-.809-.337-.728.021-.808.337-.344.316-.142.989-.2.295-.162-.295-.263-1.094-.3-.274-.344.295-.323,1.242-.728.8-.667v-.324l-.569-.222-.526.081-.631.283-1.516,1.213-1.137-.2-3.748-1.881.358-.566.358-.324.674-1.637,1.537-.668.989-.667-.631-.95.505-.526.316-.1.231-.445-.084-.364-.526-.667-.99-.849.758-.526.063-.587-.252-1.132-.548-.243-.505-.04-.337-.2-.358-.4.042-.343.443-.425.4-.546.484-.89.631-1.6-.821-.425-.526-.5-.232-.506-.568-.687-.021-.364,1.053-.506.147-.263.063-.909.484-.809.021-.364-.189-.587-.253-.364-.484-.222-1.389-.061-.821.1-.253-.1-.295-.869.337-2.507-.168-2.144-.316-.991-.59-2.163-5.41.546-1.306-.566-2.968-4.752.505-1.739.4-.809.485-.708.147-.465.021-.647-.674-2.1.127-2.082.4-.041,1.431-.505,7.284-1.133,2.527.081.568-.081.99-.505.484-.02,2.189,1.112,6.737,1.981,1.769.2.442-.06.926-.3,1.011-.182.779-.606.378-.162.8.061.316.364.316.546.737.586.758.182,1.158.041,1.073-.142.464-.445.231-.788.526-.021.99.4.316-.243.273-.586.295-.263.7-.1,2.189.2,4.864-.586,2.526.363,2.063-.626,1.474.06,1.452.344,1.221.465.358.283.442.688.274.263.358.1.653.04.568.324.611-.182.379.06.294.263.674.849.632.526.547.384.61.263.821.182,2.358.324.4.283.716.991,1.284.525,1.137.647.253,1.375,1.158.364v.162l1.473,1.052.422.2.189.222-.379.344,1.116.465.421.4.358.769.147.849-.147.526-.632.95-1.621.425-2.779.889-.442-.06-.337-.142-.189-.242-.042-.364-3.095-1.82-1.747-.566-1.327.566-.231.809.189.849.59,1.557.084.768-.021.748-.1.749-2.316,6.268-.442,1.86-.211,1.638-.231.728-.485.708-.652.505-.695.4-.568.546-.232.909.253,2.912-.169,1.375-.884,1.153-1.158.525-1.326.1-3.79-.324-.063.566,1.032,1.638.042.647-.884-.344-.99-.667-.421-.364-1.011.324-.147.849.484,1.921-.042.93-.989,4.085-.337.829-.569.364-.926-.223-1.389-1.334-.106-.425-.063-1.092-.126-.3-.484-.02-2.884-.607-.464.627.127.91.294.97.021.829-.526.748-.779.283-.884-.121-.821-.505-.421-.728-.8-1.941-.463-.162-.211.566-.484,3.033-.358,1.011-.442.667-.653.425-1.052.3-1.874.223-1.684-.142-3.453-.728-1.9.162-.547,1.233-.084,1.82-.463,1.941-.548.364-.842-.222Z" fill="#fff"/>
        <path id="BGD3255" d="M473.605,272.667l-.611,2.588-.421,2.548-.252,4.044.063.4,1.1,5.217.4.951.61,1.172.463.486.779.505,1.348.688.821.748.379.445.294.5.232.89.021,1.011-.5,2.184-.063.525.231.931v.606l-.337,1.213-.505.587-.231.526.126.586.042.89-.063.95-.379,1.5-.042,1.8-.421,3.437v.486l.273,1.84-.021,1.88.042.4,1.685,1.779.631.526.063,1.294.821.2.169.445-.084.445.21.505-.189.688-.084.687.126.081-.442.809-.127,1.7-.336.647-.421.667-.569.505-3.895,3.114-.589,1.476-.19,1.052.127.708.463,2.224v.566l-1.032.263-2.526.222-.737.283-1.368.87-.8.242-1.158-.222-1.832-1.6-1.031-.587-4.064-1.678-1.494-.971-1.074-.444-1.137-.243-1.221-.1-3.768.384-1.242-.222-.99-.445-.968-.607-1.748-1.456-.442-.505-.126-.425.21-1.051v-.506l-.189-.425-.926-1.132-.4-1.193-1.664-1.537-1.052-1.354-.358-.283-.821-.4-.9-.061-.464.587-.61.4-2.926,1.335-.843.182-.884-.142-.358-.182-.673-.465-1.1-.566-.3-.243L430.615,320l-.21-.728.147-.4.527-.749.147-.444-.105-.182-.106-.789-.084-.2-.252-1.881-1.053-1.375-1.495-.869-.968-.223-.484,1.113-.695,1.011-.99.06-2.252-.748-2.948-.121-1.031-.223-3.369-2.588-11.937-6.026-1.326-.283-.084-.323-.421-.708-.569-.687-.063-.243V299.9l-.126-.3-.674-.648-.442-.99-.758-.3-.863-.242.253-1.456.358-.87.61-.829.211-2.1.505-.2.568-.1.316-.445.063-.667.148-.566.294-.344.59.1.421-.869.632-.607.442-.627-.127-.91-.589-1.658-.211-.424-.252-.243v-.222l2.252-1.193.842-.284.885.081.736.506.653.809.4.93.042.89.548.02,1.915.505.758.061.421-.3.821-1.416,1.579-2,.569-1.112.126-1.274,1.053-1.274.547-1.435.379-3.155L416.763,272l.442-.789,1.558-.263.737.182,1.431.546,1.642.445.506-.121.336-.2.548-.606.421-.162,1.6.061,1.368.242,2.737.991,2.716.263.358-.263.463-1.051.295-.344.379-.061.589.263,3.116,1.052,1.158.081-.674-1.032.842-.182.127-.465-.127-.647.042-.647.4-.526,1.706-1.213.336-.465.106-.485-.106-.465-.336-.384,4.505.141h4.9l1.874.445.147,1.84,1.158,2.467,1.453,1.375,3.031-1.678,2.737.606,4.337,1.375h4.484l3.5.344Z" fill="#fff"/>
        <path id="BGD5492" d="M478.952,260.9l-.758.141-.652.4-.4.707-1.032,2.386.4,2.629-.252,1.213-.674.951-.547.606-.421.647-1.011,2.083-3.5-.344h-4.484l-4.337-1.375-2.737-.606-3.031,1.678-1.453-1.375-1.158-2.467-.147-1.84-1.874-.445h-4.9l-4.505-.141-2.211.1-1.074-.142-1.031-.97-.948-.061-.463-.121-.337-.263L434.342,263l-.19-.526-.042-.465-.126-.4-.484-.343-.021-.3.779-1.718-.064-1.032-.421-.627-.568-.505-.548-.647-.4-.324-1.389-.525.042.849-.463.2-.842-.081-.358.061-.484.384-.8.87-.527.141-.947-.222-1.474-.93-.884-.4-1.937-.081-.947-.182-.442-.424-.358-.708-1.221-.91-.463-.971-1.727-.829-.631-.606-.19-2.973-1.2-1.314-3.305-2.164-2.758-3.093-1.474-.728-2.021.566-.757.425-.906.384-.842.04-.589-.586-.316-.93-.211-.425-.715-.768.063-.87-.316-.728-.337-2.163.611-.728.842-2.75.884-1.638,1.137-.87.316-.93-.064-.525-.526-.445-.168-.243-.063-.465.21-.526.505-1.577.379-.586,1.495-.93.4-.344.611-.667.484-.182.947-.2,2.653-.869.8-.485.358-.728-.064-1.759.169-.708.674-.951.694-.606,2.148-1.294.337-.425.21-.445.253-.2.779.425.421.02.8-.142,1.01.162-.105-1.233-.9-2.649-.653-1.052-1.221-.566-2.611-.485-1.052-.445-.337.02-.147.324-.127,1.132-.21.283-.59-.162-.358-.647-.042-.808.253-.648.589-.97.927-3.134.337-.688.547-.91.589-.586.421.263.064.91-.042,1.031.126.971.61.647,1.6.485.737.323.59.668.568.445.863.889.906.607,1.031.424.379.041.969-.02.547.242.547,1.032.379.444.969.526,1.052.243-.189.4-.105.425.126.323.737.283-.063.85.273.364,1.053.525.61.465.106.607-.421.89-.59.485-1.663.809-.337.364.8.546,3.832-1.355,1.642.607.358.748.294.829.443.687.757.344.716-.283.7-1.6.9-.607,1.242.222,2,1.942,1.285.424,2.021-.485.9-.627-.232-.91-.505-.141-.526-.021-.337-.323.168-1.031-.421.262-.421.1-.358-.122-.294-.384-.421-1.4-1.116-.566-1.306-.425-.947-.97-.021-.83.358-.909.568-.829.59-.526.737-.344.421.121.421.4.716.525.526.243.674.769.421.323.505.2.989.243.4.323.211.587-.147.424.063.324.758.323,1.073.3.337.344.021.667-.4.2-.652-.3-.527.06.042,1.315.295.788.9,1.476.337.769.379,2.952.337.869.568.627,3.011,1.274.674.425.463.606.295.931.378.444,1.6.708,1.095,1.234.821.545.927.4.736.081.737-.4.548-.485h.526l.7.991.652.081.253-.081,2.463-.2.653.2.652,1.072.4.525.464.243.61-.121.316-.445.126-.627-.042-.647.379-1.335,2-1.6.379-.829-.337-.607-.589-.02-.632.121-.463-.222v-.566l.505-.4.653-.323.547-.344-.842-.1-.758-.344-.3-.606.485-.89.61-.4.316-.041.947.283.021-.242-.294-.567-.106-1.476.316-.4.99-.324.821.162.252.728-.063,2.063.042.3.548.242.337.041.905-.081.421.04.526.425.274.728.21.789.358.667.59.809.063.606-.105.607.063.849.252.445.927,1.173.61.991.274.08.3-.121.316-.323.231-.041.653.809-.127.667-.652.506-.884.3.863.506.694.06.379.283-.21,1.153-1.958,3.336-.168,1.193.842,4.368,1.031,2.447.463,1.9-.421,3.418-.084,3.639-1.031,3.68-.064.486Z" fill="#fff"/>
        <path id="_0" data-name="0" d="M429.6,236.028Z" fill="#fff"/>
        <path id="_1" data-name="1" d="M430.573,235.987Z" fill="#fff"/>
        <path id="_2" data-name="2" d="M429.921,235.5Z" fill="#fff"/>
      </g>
      <g id="Group_138" data-name="Group 138">
        <g id="Group_134" data-name="Group 134">
          <path id="Path_15" data-name="Path 15" d="M635.223,249.191a308.034,308.034,0,0,1-19-35.731c-11.92-26.667-16.037-47.449-12.241-61.769a26.579,26.579,0,0,1,13.7-17.494l1.067,2.05a24.349,24.349,0,0,0-12.535,16.037c-3.6,13.6.58,34.413,12.1,60.2a305.441,305.441,0,0,0,18.852,35.456Z" fill="#85878a"/>
        </g>
        <path id="Path_16" data-name="Path 16" d="M614.164,139.319a25.212,25.212,0,0,1,4.58-3.072l-1.067-2.05a27.847,27.847,0,0,0-4.606,3.021Z" fill="#d1d0cf"/>
        <path id="Path_17" data-name="Path 17" d="M621.487,136.816l-3.846,2.012a1.54,1.54,0,0,1-2.074-.654l-1.228-2.36a1.547,1.547,0,0,1,.652-2.079l3.845-2.012a1.54,1.54,0,0,1,2.074.654l1.229,2.359A1.549,1.549,0,0,1,621.487,136.816Z" fill="#2f2e2e"/>
        <path id="Path_18" data-name="Path 18" d="M618.836,131.723l-3.846,2.012a1.526,1.526,0,0,0-.8,1.281l2.764-1.446a1.54,1.54,0,0,1,2.074.654l1.228,2.36a1.5,1.5,0,0,1,.145.8l1.082-.566a1.549,1.549,0,0,0,.652-2.08l-1.229-2.36A1.54,1.54,0,0,0,618.836,131.723Z" fill="#1f1f1f"/>
        <path id="Path_19" data-name="Path 19" d="M621.591,137.524a1.546,1.546,0,0,0,2.451.393,5.147,5.147,0,0,0-4.645-8.925,1.552,1.552,0,0,0-1.081,2.24Z" fill="#2f2e2e"/>
        <path id="Path_20" data-name="Path 20" d="M619.4,128.992a1.545,1.545,0,0,0-1.157,2.038,1.525,1.525,0,0,1,.356-.112,5.409,5.409,0,0,1,5.919,2.58,4.891,4.891,0,0,1,.428,3.277,5.2,5.2,0,0,0,.373-5.2A5.41,5.41,0,0,0,619.4,128.992Z" fill="#1f1f1f"/>
        <path id="Path_21" data-name="Path 21" d="M614.164,139.319a25.212,25.212,0,0,1,4.58-3.072l-1.067-2.05a27.847,27.847,0,0,0-4.606,3.021Z" fill="#d1d0cf"/>
        <path id="Path_22" data-name="Path 22" d="M621.487,136.816l-3.846,2.012a1.54,1.54,0,0,1-2.074-.654l-1.228-2.36a1.547,1.547,0,0,1,.652-2.079l3.845-2.012a1.54,1.54,0,0,1,2.074.654l1.229,2.359A1.549,1.549,0,0,1,621.487,136.816Z" fill="#2f2e2e"/>
        <path id="Path_23" data-name="Path 23" d="M618.836,131.723l-3.846,2.012a1.526,1.526,0,0,0-.8,1.281l2.764-1.446a1.54,1.54,0,0,1,2.074.654l1.228,2.36a1.5,1.5,0,0,1,.145.8l1.082-.566a1.549,1.549,0,0,0,.652-2.08l-1.229-2.36A1.54,1.54,0,0,0,618.836,131.723Z" fill="#1f1f1f"/>
        <path id="Path_24" data-name="Path 24" d="M621.591,137.524a1.546,1.546,0,0,0,2.451.393,5.147,5.147,0,0,0-4.645-8.925,1.552,1.552,0,0,0-1.081,2.24Z" fill="#2f2e2e"/>
        <path id="Path_25" data-name="Path 25" d="M619.4,128.992a1.545,1.545,0,0,0-1.157,2.038,1.525,1.525,0,0,1,.356-.112,5.409,5.409,0,0,1,5.919,2.58,4.891,4.891,0,0,1,.428,3.277,5.2,5.2,0,0,0,.373-5.2A5.41,5.41,0,0,0,619.4,128.992Z" fill="#1f1f1f"/>
        <g id="Group_135" data-name="Group 135">
          <path id="Path_26" data-name="Path 26" d="M774.558,176.3a308.21,308.21,0,0,0-18.364-36.064c-15-25.055-29.648-40.329-43.535-45.4A26.457,26.457,0,0,0,690.511,96.1l1.067,2.049a24.245,24.245,0,0,1,20.291-1.135c13.185,4.811,27.823,20.161,42.333,44.39a305.53,305.53,0,0,1,18.225,35.783Z" fill="#85878a"/>
        </g>
        <path id="Path_27" data-name="Path 27" d="M696.711,96.135a25.183,25.183,0,0,0-5.133,2.009L690.511,96.1a27.73,27.73,0,0,1,5.107-2.06Z" fill="#d1d0cf"/>
        <path id="Path_28" data-name="Path 28" d="M690.474,100.725l3.846-2.011a1.548,1.548,0,0,0,.652-2.08l-1.228-2.36a1.54,1.54,0,0,0-2.074-.653l-3.846,2.012a1.547,1.547,0,0,0-.652,2.079l1.228,2.36A1.539,1.539,0,0,0,690.474,100.725Z" fill="#2f2e2e"/>
        <path id="Path_29" data-name="Path 29" d="M687.824,95.633l3.846-2.012a1.514,1.514,0,0,1,1.5.078l-2.764,1.446a1.548,1.548,0,0,0-.651,2.079l1.228,2.36a1.5,1.5,0,0,0,.57.576l-1.082.565a1.539,1.539,0,0,1-2.074-.653l-1.228-2.36A1.547,1.547,0,0,1,687.824,95.633Z" fill="#1f1f1f"/>
        <path id="Path_30" data-name="Path 30" d="M690.995,101.216a1.552,1.552,0,0,1-1.081,2.24,5.146,5.146,0,0,1-4.645-8.924,1.546,1.546,0,0,1,2.451.392Z" fill="#2f2e2e"/>
        <path id="Path_31" data-name="Path 31" d="M685.269,94.532a1.538,1.538,0,0,1,2.329.214,1.513,1.513,0,0,0-.3.228,5.439,5.439,0,0,0-1.275,6.344,4.868,4.868,0,0,0,2.436,2.226,5.17,5.17,0,0,1-4.47-2.668A5.441,5.441,0,0,1,685.269,94.532Z" fill="#1f1f1f"/>
        <g id="Group_136" data-name="Group 136">
          <path id="Path_32" data-name="Path 32" d="M752.048,303.316c-40.074,20.965-94.329-3.583-120.944-54.72l8.178-4.277c24.262,46.616,72.935,69.4,108.5,50.8s44.76-71.668,20.5-118.284l8.178-4.278C803.073,223.693,792.123,282.352,752.048,303.316Z" fill="#2f2e2e"/>
        </g>
        <g id="Group_137" data-name="Group 137">
          <path id="Path_33" data-name="Path 33" d="M743.5,297.358c.718-.376,1.407-.788,2.1-1.191-35.351,16.6-82.55-6.173-106.322-51.848L635,246.558C659.262,293.174,707.935,315.963,743.5,297.358Z" fill="#1f1f1f"/>
          <path id="Path_34" data-name="Path 34" d="M772.176,174.8c26.139,50.221,16.025,107.67-22.3,129.571.726-.346,1.459-.675,2.176-1.051,40.075-20.964,51.025-79.623,24.41-130.76Z" fill="#1f1f1f"/>
        </g>
      </g>
      <g id="Group_139" data-name="Group 139">
        <path id="Path_35" data-name="Path 35" d="M385.664,475.949c-3.029,1.952-6.159,3.8-9.41,5.524-10.968,5.807-32.612,10.558-43.579.9-10.591-9.325-7.075-28.747-6.069-34.3,5.676-31.353,32.034-50.839,61.094-71.71a356.8,356.8,0,0,1,73.016-40.336q-.746-2.988-1.49-5.976a347,347,0,0,0-77.486,43.324c-27.526,20.465-51.8,39.032-59.6,70.216-1.738,6.95-7.843,31.353,5.192,44.319,6.7,6.666,16.065,8.137,19.486,8.41,11.073.882,23.161-2.8,33.031-8.031a133.156,133.156,0,0,0,11.6-6.927C389.495,479.55,387.578,477.749,385.664,475.949Z" fill="#2f2e2e"/>
        <path id="Path_36" data-name="Path 36" d="M752.306,291.507l-6.123,4.66c20.509,27.083,25.866,65.078,13.647,96.8s-41.656,56.245-75,62.48c-44.979,8.41-94.39-19.324-110.141-61.82-11.548-31.163-6.4-65.934-1.411-99.56.568-3.835,1.135-7.657,1.674-11.46,5.047-35.528,7.705-80.462-16.748-112.841-8.9-11.787-24.209-22.986-40.494-19.057-14.968,3.612-25.186,18.327-30.37,43.736-.214,1.05-.4,2.107-.612,3.159,1.661,1.954,3.228,3.887,4.65,5.762.807-.773,1.652-1.554,2.515-2.338.324-1.681.636-3.366.977-5.038,4.534-22.224,12.824-34.938,24.64-37.789,12.687-3.065,25.473,6.823,32.566,16.217,11.944,15.816,24.475,42.283,15.267,107.1-.539,3.788-1.1,7.593-1.668,11.413-5.127,34.589-10.428,70.357,1.81,103.376,8.3,22.4,25.221,41.635,47.646,54.173,22.329,12.485,47.579,16.937,71.108,12.538,35.9-6.713,67.6-33.122,80.76-67.277S774.389,320.671,752.306,291.507Z" fill="#2f2e2e"/>
      </g>
      <g id="Group_140" data-name="Group 140">
        <ellipse id="Ellipse_19" data-name="Ellipse 19" cx="31.077" cy="31.157" rx="31.077" ry="31.157" transform="translate(458.314 295.318)" fill="#2f2e2e"/>
        <path id="Path_37" data-name="Path 37" d="M491.857,295.416A30.825,30.825,0,0,0,476,298.385a31.156,31.156,0,0,1,7.972,58.762c.968.171,1.951.307,2.951.386a31.156,31.156,0,0,0,4.932-62.117Z" fill="#1f1f1f"/>
        <ellipse id="Ellipse_20" data-name="Ellipse 20" cx="25.905" cy="25.971" rx="25.905" ry="25.971" transform="translate(463.486 300.503)" fill="#d1d0cf"/>
        <path id="Path_38" data-name="Path 38" d="M491.446,300.585a25.817,25.817,0,0,0-7.261.462,31.145,31.145,0,0,1,6.976,51.309,25.961,25.961,0,0,0,.285-51.771Z" fill="#bfbaba"/>
        <ellipse id="Ellipse_21" data-name="Ellipse 21" cx="19.996" cy="20.048" rx="19.996" ry="20.048" transform="translate(469.395 306.427)" fill="#fff"/>
        <path id="Path_39" data-name="Path 39" d="M509.324,328.065a20.019,20.019,0,0,0-17.188-21.423,31.038,31.038,0,0,1,5.172,38.237A20.033,20.033,0,0,0,509.324,328.065Z" fill="#f0f0f0"/>
      </g>
      <ellipse id="Ellipse_22" data-name="Ellipse 22" cx="53.313" cy="31.677" rx="53.313" ry="31.677" transform="translate(320.873 253.549) rotate(-46.586)" fill="#fff" opacity="0.1"/>
    </g>
  </g>
</svg>
