<svg xmlns="http://www.w3.org/2000/svg" width="498.238" height="481.522" viewBox="0 0 498.238 481.522">
  <g id="Group_164" data-name="Group 164" transform="translate(-269.134 -824.849)">
    <g id="Group_156" data-name="Group 156">
      <g id="Group_153" data-name="Group 153">
        <g id="Group_152" data-name="Group 152">
          <g id="Group_146" data-name="Group 146" opacity="0.88">
            <path id="Path_46" data-name="Path 46" d="M462.507,1306.314a17.783,17.783,0,0,1-10.249-4.292c-111.364-96.326-189.644-171.27-182.7-258.786,5.111-64.375,56.043-130.226,129.393-124.373,47.051,3.755,75.331,29.414,90.4,49.28,18.014-17.226,49.97-38.078,97.02-34.323,73.351,5.853,113.251,78.953,108.14,143.328-6.948,87.508-96.068,149.1-221.211,226.553A17.767,17.767,0,0,1,462.507,1306.314Z" fill="#fff"/>
          </g>
          <g id="Group_147" data-name="Group 147" opacity="0.1">
            <path id="Path_47" data-name="Path 47" d="M586.375,933.82c-2.253-.18-4.461-.286-6.646-.357,31.331,28.372,46.92,73.734,43.609,115.442-6.731,84.776-90.586,145.231-209.6,219.347q18.461,16.484,38.521,33.77A17.82,17.82,0,0,0,473.3,1303.7c125.143-77.452,214.263-139.045,221.211-226.553C699.626,1012.773,659.726,939.673,586.375,933.82Z" fill="#d13049"/>
          </g>
          <g id="Group_148" data-name="Group 148" opacity="0.1">
            <path id="Path_48" data-name="Path 48" d="M600.342,935.819c38.8,27.005,58.534,77.968,54.848,124.4-6.939,87.407-95.865,148.96-220.782,226.287q8.773,7.672,17.85,15.519A17.82,17.82,0,0,0,473.3,1303.7c125.143-77.452,214.263-139.045,221.211-226.553C699.291,1016.987,664.752,949.212,600.342,935.819Z" fill="#c12745" opacity="0.5"/>
          </g>
          <g id="Group_149" data-name="Group 149" opacity="0.2">
            <path id="BGD1806" d="M486.728,1101.723l1.748,1.253.379,1.052-1.663-1.173-.906-.344-.252.546-.821.385-.864-.243-.821-.586-1.431-1.436-.484-.688.126-.424h1.2l1.642.566,2.147,1.092Zm17.979-86.544-.126,2.083.674,2.1-.021.647-.148.465-.484.708-.4.809-.505,1.739,2.968,4.751,1.306.567,5.41-.546.59,2.163.315.991.169,2.143-.337,2.508.3.869.252.1.821-.1,1.39.061.484.222.253.364.189.587-.021.364-.484.808-.063.91-.148.263-1.052.506.021.364.568.687.232.506.526.505.821.425-.631,1.6-.485.89-.4.546-.442.425-.042.343.358.405.337.2.505.04.548.243.252,1.132-.063.587-.758.525.99.85.526.667.084.364-.231.445-.316.1-.505.526.631.95-.989.667-1.537.668-.674,1.637-.358.324-.358.566-.589.4-.779.263-.884.081-.4.223v.485l.084.546-.126.384-.316.041-.337-.122-.611-.465-1.515,2-1.032.344-.274.162.19.93-.063.222.821,1.132-.337.688.884.505-.337,1.011-.884.971-.737.445-.526.485-.4,1.132.189.91-.231,1.173-.927,2-1.726,2.3-.631.506-.421.222-.527-.141-1.347-.85-.884.405-.358.04-1.39-.061-.61.162-.59.445-.442.627-.021.384.253,1.031-.063.708-.927,2.346-.716,1.051-.084.425.148.3.652.445.463.526.106.343-.042.344-.337.647-.4.384,1.2,1.193.4.546-.106.243-.694.081-.548.263-.189.4.337.546-.463.485-1.011.627-.4.587-1.1-.021-.126.2.4.444.821.627-.316.991-.8-.445-.505-.06-.863.505-1.158.364-.653.425-.21-.162-.7-1.881.19-1.354.736-1.113,1.137-.505-.358-.081-.252.081-.358-.465-.758.081-1.663.667.252.667-.231.405-.548.2-.715.061-.758-.061-.59-.2-1.158-.708.358.728.653.485.737.283.758.122,1.684.06.379.385.105,4.266-.147.526-.358.283-.358.687-.295.85-.084.748-1.516-.627-8.9-1.678-1.727-.607-1.557-.991-.043.546.422.526,5.894,3.437.716.567.421.586.295.586.4.465,1.431.3,1.264.606.715.243,2.969.323.379.3,1.326,1.961.211.789.147,1.678-.526-.748-.421-.425.231.93.19,2.811-.169,1.132-1.221,1.7-.295.283-.547-.142-.105-.384.21-.465.442-.344v-.323h-.315l-.506.667-.505.465-.631.324-.864.2-1.7-.061-.568.223-.211.788.042.3-.484.707-.779.445-1.2-.546-.61-.566-1.032-.768-1.474-.324-.673.263-.506.324-.4.768.442.081.7-.1.379.242.021.829-.4.769-.337.3-.505.789-.442.3-.674.081-.526-.2-.653-.445-.884-1.031-.252-.789-.106-1.193-.147-.384-.274-.364-.379-.162-.505-.081-2.232.4-.421.728-.336.889-.864.445-.758.748-.378.566-.885.809-.252.3-.632,1.314-1.137,1.516-1.073,1.072-.632.324-.779.161-1.621.263-1.874-.95-.337-.3-.926-1.011-.968-.466-.253-.2-.189-.323-.253-.87-.211-.445-.589-.788-1.474-1.294-.716-.829-1.115-2.285-.442-.647-.358-.2-.779-.141-.379-.324-.337-.647-.084-.444.042-.526.9.728.463.161.337-.667.7-.97.295-.2.568-.182.147-.424-.252-.445-.653-.243-.526.122-.779.586-.569-.061-.673-.849.147-.97-.105-.829-2.421-.627.379-.708.9-.849.526-.748-1.368.04-1.137-1.294-.674-1.8.042-1.516h.337l.337.424.59.263-.864-3.923-.4-.97-.9-.809-1.389-.728-1.327-.141-.736,1.031-.3-.607.021-.687.9-.647.421-.465-.274-.223-.463-.222-.273-.506-.19-.606-.295-.465-.568-.627-2.695-3.883-.484-.222-.589.04-.758.223-1.306.081-1.873-2.305-.127-.425,2.358-5.9.042-.971-.084-.384-.652-1.881,1.494.971,4.063,1.678,1.032.587,1.832,1.6,1.158.222.8-.242,1.368-.87.737-.283,2.526-.222,1.032-.263v-.566l-.463-2.224-.127-.708.19-1.052.589-1.476,3.895-3.114.568-.505.421-.667.337-.648.127-1.7.442-.809-.127-.081.085-.687.189-.688-.21-.505.084-.445-.169-.445-.821-.2-.063-1.294-.631-.526-1.685-1.779-.042-.405.021-1.88-.273-1.84v-.486l.421-3.437.042-1.8.379-1.5.063-.95-.042-.89-.127-.586.232-.526.505-.587.337-1.213v-.606l-.231-.931.063-.525.505-2.184-.021-1.011-.232-.89-.294-.505-.379-.445-.821-.748-1.348-.688-.779-.505-.463-.486-.61-1.172-.4-.951-1.1-5.217-.063-.4.252-4.044.421-2.548.611-2.588,1.01-2.083.421-.647.548-.606.673-.951.253-1.213-.4-2.629,1.032-2.386.4-.707.652-.4.758-.141-.189,1.395.147,1.638.4,1.718.526.951.716.121,1.621-.627,1.727-.06,10.084,4.1,7.137,1.537,3.537,1.436,1.6.06,4.61-.95,3.726.324,1.832-.465.632.02.526.161.989.425,1.685.283.379-.02.273-.142.484-.505.232-.121.737.08.589.344.569.425.652.3,1.285.162,5.115-.688Z" fill="#c12745"/>
            <path id="BGD2432" d="M423.318,1177.913l-.548.829-1.368-.707-2.316-2.649v-.2l.274-.284.3-.889-.022-.91-.442-1.557-.126-.728-.3-.829.042-.445.548-.02.189.121.274.506.168.667.442,3.154.527,1.4,1.052.586,1.053.667.253,1.294Zm9.116-103.387.652,1.881.084.384-.042.971-2.358,5.9.127.425,1.873,2.305,1.306-.081.758-.223.589-.04.484.222,2.695,3.883.568.627.295.465.19.606.273.506.463.222.274.223-.421.465-.9.647-.021.687.294.607.737-1.031,1.327.141,1.389.728.9.809.4.97.864,3.923-.59-.263-.337-.424h-.337l-.042,1.516.674,1.8,1.137,1.294,1.368-.04-.526.748-.9.849-.379.708,2.421.627.105.829-.147.97.673.849.569.061.779-.586.526-.122.653.243.252.445-.147.424-.568.182-.295.2-.7.97-.337.667-.463-.161-.9-.728-.042.526.084.444.337.647.379.324.779.141.358.2.442.647,1.115,2.285.716.829,1.474,1.294.589.788.211.445.253.87.189.323.253.2.968.466.926,1.011.337.3,1.874.95.674.607.842,1.435-.632.486-.463-.02-.274.121-.316.566.022.283.294.283-.084.364-.674.344-.168.344v.343l.189.425.4.222.211.223-.232.4-1.389.89-.4.465v.243l.3.141,1.136.122.4.121.232.344-.042.667-.316.121-.442-.162-.505.2.021.2.484.424.316.4.505,1.436.737.525.274.243.358,1.031.021.587-.106.707-.4.85-.168.748.189.4.716.364.232.344.379,1.092-1.453,1.435-.632.769-.252.748-.358.748-.779-.222-1.368-1.052.084.991.252.809.169.809-.169,1.011-1.894,3.518.547.991.484,1.678.527,3.175.063,1.638-.148.808-.379.607-.757.4-.653-.081-.716-.182h-.863v.344l.968.4.8.505.548.728.189,1.112-.042.445-.232.849v.506l.19.424.61.931.379.909.443.526.252.607-.316.748-.336.121-1.011.182-1.158,1.011-.505.728-.421.243-.842.3-.485.081-.21-.243-.232-.667L451,1173l-.7.444-.568.243-.758-.04-.842-.182-.779-.3-.548-.424-.378-.87-.022-.525.485-.809-.085-.465-.652-.89-1.284,2.588.526.87.884,1.172,1.011,1.052.9.445.4.465-.484.93-.99.667-1.116-.283-.568-.344h-.505l-1.116.2-.126.263.505,1.253.084.405-.863.849-.968-.587-1.285-1.9.063-.829-.505-1.941.127-1.072.357-.607.843-.95.357-.728.148-.789-.19-3.4.337-2.75.253-.95,1.1-1.881.231-1.031-.147-.991-.4-.99-.569-.89-.61-.688-.021-.667,1.389-1.759.358-.789.063-1.011.148-.97.294-.93.443-.829-.506.364-.421.606-.631,1.294-.527.506-.168.424.421,1.092-.274.405-.884.647-.526.829.042.627.947,1.617.358,1.031.021,1.072-.105.566-.463.91-.106.465-.378,2.993-.211.687-.863.445-.358-.728-.063-2.1.126-.485.463-.991.042-.606-2.063-4.691-.1-.971.21-2.1-.063-.95-.442-1.011h-.337l-.379,3.114.379,5.965h.337l.042-.668.211-.606.379-.2.21.97.232.587.274.4.252.526-.042.687-.379,1.193-.231.223-.548.1-.063.485.295.485.168.526.548,1.153.336.424.085.324-.421,2.507-.485.546-.589.425-.611.546-.505.829-.042.667.147.768.127,1.153-.169,1.072-.442.889-.61.748-1.664,1.375-.505.041-1.158-1.254-.252-.708-.063-1.213.147-2.123.231-.849.611-1.436.105-1.112-.189-.95-.842-1.577-.211-.809h-.337l-.273.707.126.607.3.586.189.668v.748l-.168.424-.758.749-.463.566-.295.485-.737,1.739-.231.384-.232.02-.253-.626h-.294l.021,1.193.463,1.84-.19,1.152-.758,1.618.127.526.947.444-.526.587-.779.546-.9.384-.885.1-.863-.485-.274-.87.169-.849.484-.364.084-.526-1.41-3.842-.084-.95-.19-.2-.421.263-.442.465-.19.425-.273.2-.59-.162-1.01-.506-.463-.384-.19-.3-1.137-3.842-.084-.789.1-.97.485-1.982.021-1.092-.316-.99-1.011-1.335-.21-.748.273-2.164-.147-.869.8-1.011-.084-1.133-.253-.93-.379-.788-1.979-2.508-.442-.99.653-.445-.737-1.254-.253-.566-.547-2.528v-.445l.126-.485.379-.627.085-.384-.19-1.092-.842-1.88-.4-1.739-.547-.425-1.411-.526,1.011-.667.273-1.092-.189-1.274-.442-1.213-.569-.991-.168-1.051-.169-.607-.547-1.375-.105-.849.316-.647.505-.607.484-.728.211-.626.168-.931.084-.909-.105-.647-.526-.466-1.264-.4-.526-.627-.968-2.224-.485-.748-.863-1.052-.189-.525.042-.931.421-1.354.105-2.447.632-1.193,2.463-2.528,1.221-.99.4-.445.232-.506v-.384l-.253-.222-1.242.04-.8-.283-3.179-1.072-.758-.141-.61.081-.695.525-.358.182-.484-.02-2.99-.93-.61-.526-.442-.91-.043-1.031.422-.93,1.094-1.7,2.211-5.662.105-1.011-.61-.485-.59.444-.526.809-.569.2-.673-1.273-.506-.223-1.326-.89-.758-.788-1.074-1.86-.673-.708-.358-.081-.9.1-.464-.182-.442-.465-.021-.324.148-.364.084-.586-.232-.182-.463-.1-.421-.2-.084-.526.968-4.347-.063-.445-.337-.728.021-.445.211-.505.674-1.032.231-.546v-.424l-.147-.87.147-.465.737-.546.884-.04.948.081.863-.182.61-.465,1.727-1.638.442-.546.147-.849-.126-1.032-.274-.91-.316-.566.569-.93.526-.667-.021-.465-1.1-.243-.147-.607-.863-.707-.211-.546.063-.445.274-.991.063-.566-.21-.971-.021-.465.273-.586.442-.425,1.011-.364.716-.323.21.728.716,1.051.3.243,1.094.566.674.465.358.182.884.142.842-.182,2.927-1.335.61-.4.463-.587.906.061.821.4.358.283,1.052,1.355,1.663,1.537.4,1.193.927,1.132.189.425v.505l-.21,1.052.126.425.442.505,1.747,1.456.969.607.989.444,1.242.223,3.769-.384,1.221.1,1.137.242,1.073.445Z" fill="#c12745"/>
            <path id="BGD2475" d="M489.065,1168.693l-.442,1.071-.379-.242h-.316l-.379.95-.757,1.011-.885.688-.8-.061v-.344l.906-.263.358-.06-.611-.769-.337-.222.295-.3-.084-.809.126-.485.379-.567,3.053-2.022v.971l.336.546.253.748-.716.162Zm-11.747,4.044-.421.263-.211-.122v-2.183l.19-1.133.442-1.031.989-1.8.779-.849,1.053-.242-.168,1.031-1.137,1.86-1.1,3.68-.421.526Zm.61-5.783h-.273l.273-1.011.59-1.375.7-1.072.61-.121-.295,1.173-1.284,1.415-.316.991Zm3.916,3.033-.737.344-.61-.3-.358-.687v-.809l.253-.667.294-.506.253-.586.105-.991-.105-1.5.168-.445.59-.465,2.042,2.1.568,1.253-.442,1.5-.968.566-1.053,1.193Zm8.253-12.072-.9,2.892-.085-.769-.252-.545-.527,1.617-.273,1.8-.4,1.617-.969,1.113-.863.242-.463-.222-.211-.506-.042-.647.232-.424,1.621-1.355-.274-.324-1.958,1.112-.252.486H484.2l.084-1.112.274-1.032.526-.748.8-.3.569-.344,1.221-1.314.568.02.379-.546.548-.505.526-.283.4.08Zm15.5-2.082.1.424v2.548l-.337,1.112-.9.223-.463-.728.063-1.315.316-1.415.379-1.052.273.344.253-.3Zm1.536.606-.526.445.021-2.527.274-.931.631.263.043.87-.127,1.011-.316.869Zm.106-4.064-1.706,2.568-.715-.283.147-.647.463-.809.274-.647.168-2.143.274-1.153.463-.768.337.364.253.707.189.87.042.97-.189.971Zm-16.232-7.1.653,1.152.505,1.314.105,1.113-.505-.971-.105-.344-.337.829.3,1.881-.3.829-.232-.425L491,1149.14h.316l-.295-.85-.337-1.84-.294-.849-.274-.182-.569-.02-.105-.627.105-.283.295-.1.548.243Zm.926.02-.273.3.273-2.77.337.162.19.505.084.506.021.93-.632.364Zm7.916,13.163-2.4,3.6-.8.667-.337-.667-1.031,1.051-.442.243-1.179,1.961-1.537.667-.463-.06-.379-1.032.547-1.354.842-1.436.548-1.294-2.548,3.559-.716.141-.294-.93.189-1.335.505-1.375.653-1.031-.505-1.031.442-1.739,1.9-3.983.231-.769.148-.91v-2.77l.273-.809-.358-1.395-.1-.93.19-.566v-.3l-.506-.87-.547-2.871-.505-1.133-.737-.626-2.569-1.76-.736-.2-.211-1.739.1-1.658,1.011-3.882.316-.526.484-.344.779-.3.8-.182.884-.1.463,1.415.505,1.679.569,1.314.779,1.537.652,1.132.716.829.716,1.112.337,2.3.568,1.456,1.074,1.052,2,1.759.926,1.112-.9,4.489.042,7.623Zm-10.063-34.273.926.95.843.364.842.971.652.97-.716.142-1.557-.3-1.685-.1-1.326,1.193-.7.243-.694.687-.085,1.173.232.748-.632.809-.442-.526-.589-.525-.063-.445-.169-.485-.463-.3-1.221-.364.379-.546.063-.424-.147-1.315.042-.869.126-.829.337-.647.61-.243,1.558.263.737-.1.316-.647.379-.061h1.789l.653.223Zm1.769-4.631,1.01.748v.283l-1.179.041.147.3.443.405.357.444.232.466-1.432-.162-.4-.162-.336-.364-.548-.95-.4-.3-.463-.141-.337.263-.4.161-.5.061-1.221.02-.484-.081-.716-1.071.9-1.517,1.516-1.193,1.116-.1.968.789,1.726,2.062Zm-7.622-1.779-.379.222-.378-1.941-.232-.687h1.747l.737-.284.295.466-.063.343-.7.668-1.032,1.213Zm-1.263-1.759.211,1.031.631,1.5.842,1.416.906,1.152.1.243-.063.546.126.344.484.121.674.566.19.344-.232.445-.7.323-.673-.081-.653-.162-.653.061-.863,1.052-.421,1.577-.547,1.314-1.285.283.737.627-.189.627-.611.243-.547-.546-.99.626.674.486,1.284.424.885.425.421-.87.779.142.8.647.484.708.147.485.169,1.476.547,1.537.189,1.638-.126.344-.442.566-.4.222-1.053.142-.421.263-.252.707-.527,2.629.127.2.589-.485.211-.3.042-.485-.127-.95.085-.506.463-.647.674-.384.8-.121.863.162,1.621.97.821,1.355.547,1.577.758,1.638-.926-.344.021,1.072.316.849.9,1.678.231.951.043.991-.274,1.941-1.453,3.619-1.073,1.638-.885.2-1.221.647-.463.4-.21.424-.106.647-.273.728-1.306,2.2-.442.526-.505.222-.611-.141-.778-.324-.653-.424-.3-.364.274-1.173,1.1-2.244.189-1.133-.526-1.334-.106-.627.3-1.476-.147-.587-.758-.182.189.971-.442,2.1.085.667.379.324.526.3.168.465-.063.364-.21.324-.59.667-.126.667-.4-.141-.169.1-.126.485-.147,1.456-.379,1.011-.821,1.213-.7.809-.211.829-.863,1.719-.189.869-.211,1.8-.421,1.759-.358.91-.463.627-2.505,2.062-.632.425-.863.162-.926-.142-1.7-.688-.8-.161-.737-.384-.19-.769.3-.606.779.161-.337-.667.274-.465.442-.425.252-.566-.21-.667-.253-.182-.8,1.921-.442.4-.421.142-.568.627-.421.2-.379-.081-.59-.485-.547-.061.316-1.254.126-2.547.484-1.072.421-.344,1.053-.687.4-.567.21-.728.253-1.152.421-.667,1.874-1.638.8-1.153.4-.182,1.01.364.948-.647.715-1.051.337-1.274-.147-1.254-.8,2.042-.568,1.072-.653.465L469.7,1160l-.737.425-2.716,2.81-.316.486-.357,1.011-.59.869-.147.344-.232.222-.653.1-.463-.06-1.452-.567.273-.667.042-.708.358-.566.421-.364.4-.182.295-.323.126-.728-.168-1.416.211-.525.168-.708.421-.465.505-.223.421-.283.274-.566-1.179.4-.568.808-.716,2.326-.4.526-1.221,1.152-.274.4.105,2.124-.105.606-.674.566-.821-.283-.694-.809-.3-.909-.084-.465-.4-1.072-.127-.566-.105-3.478-.421-1.941-.105-1.193-.1-.445-.59-.91-.232-.465-.168-.607-.063-.505.231-1.133.906-2.163,3.747-5.258.253-.586.168-.566.274-.526-.7.364-.147.142-.379-1.092-.232-.344-.716-.364-.189-.4.168-.749.4-.849.106-.708-.021-.586-.358-1.031-.274-.243-.737-.526-.505-1.435-.316-.4-.484-.424-.021-.2.505-.2.442.162.316-.121.042-.667-.231-.344-.4-.122-1.137-.121-.3-.141v-.243l.4-.465,1.389-.89.232-.4-.211-.223-.4-.222-.189-.425v-.343l.168-.344.674-.344.084-.364-.294-.283-.021-.283.315-.566.274-.122.463.021.632-.486-.842-1.435-.674-.607,1.621-.263.779-.162.632-.323,1.073-1.072,1.137-1.516.632-1.315.252-.3.885-.809.378-.566.758-.748.864-.445.336-.89.421-.728,2.232-.4.505.081.379.162.274.364.147.384.106,1.193.252.788.884,1.032.653.445.526.2.674-.081.442-.3.505-.789.337-.3.4-.769-.021-.829-.379-.242-.694.1-.443-.081.4-.769.506-.323.673-.263,1.474.324,1.032.768.61.566,1.2.546.779-.445.484-.707Z" fill="#c12745"/>
            <path id="BGD2476" d="M550.35,1179.066l1.642,3.094.421,1.86-.105.991-.421,1.981-.106,1.052-.4.829-1.01.04-1.137-.2-.884.121v.263l.21.344.021.364-.547.283-.484-.04-.4-.263-.253-.385-.189-.829-.148-.323.021-.344.7-.991.126-.485.021-1.112-.231-1.9-.969-3.134.253-1.739.442-.93.421-.425.505.041.653.505.232.607-.211.728-.337.748-.147.647.716-.829.273-1.132-.042-1.193-.337-1.052.821-.1.737-.2v.991l.148,2.123Zm-4.442-.971-.379.445-.379-.788.715-3.9-.336-2.406.168-.809.337-.607,1.074-1.172.252.283.063.384.548,1.759.063.667-.147.748-.632,1.193-.358,1.638-.989,2.568Zm-34.485-17.227-.863.545-1.137-.06-.716-.182-.526-.344-.274-.687,1.306-1.517.842-1.254.316-.788.4-2.285.042-3.316.273-3.68.779-.122,1.579.789.99.829.358,1.173.673.606.464,1.7.021,1.092.21,1.536-.737,1.436-.442.728-.884,1.678-.926.748-.653.425-.589.121-.506.829Zm3.516-16.5-1.158.06-.926-.566.442-1.314,1.6-.667,1.874-.526.484.91-.442,1.092-.948.606-.926.405Zm17.979,2.3-2.168.242-1.432-.768-1.347-1.9-.758-1.88-.274-1.517,1.053-2.406.947-.485,4.042,5.116.316,2.022-.379,1.577ZM521.7,1071.089l-.758-.121-.8.323-.61.526-.464.627-1.558,2.669-.189.667.021.647.526,1.112.19.607-.148.89-.9,2.608-.463.789-.842.4-.863.081-.716.243-.421.909.189,1.032.716.384.758.263.274.728-.4.768-.632-.04-.568.06-.169,1.153.211.829,1.326,2.386.337.849.379,1.557.421.789.379.343.8.465.295.445.1.364.211,1.173.61,2.022.463.971.59.424.589.142.148.283-.19.384-.463.425-.316.445.084.364.442.869,1.053,7.664.59,1.961,1.094,1.415,1.516.385.168-1.557-.842-3.984-.021-2.123.253-1.112.505-.667,1.011-.041.863.668.674.909.358.647.168-.363.295.384v.829l.673.647h.106l.315,1.476.211.485,1.053,3.478.231,1.213.126.142.422.121.126.162.063,1.415.189.486.59.626.589.223.611.121.632.283.273.526v.465l.148.162.736-.405.274-.343.379-.85.4-.161.968.242.948-.283,1.221-.263.568-.343.337-.364.758-.688.316-.344.779-1.112.042-.647.21-.182.7.02.7-.727.189-.425-.168-.566-.59-1.456-.673-3.256-.674-1.516-.253-1.9.864-2.345,1.326-2.225,1.179-1.536.737-.627,2.505-1.052.737-.5.589-.627,1.032-1.678.063-1.881-1.2-5.52-.063-1.82.084-1.031.295-.607.631-.04.569.667.568.89,1.9,2.083.716.343,1.052-.263.779-.667,1.495-1.981.737-.809,1.916-.647.9,1.334.463,1.82.611.829.7-.647.568-2.2.758-.425.947.486.1,1.031-.526,2.022.126,1.6,1.727,5.419.273,2.326.211.708.232.384.589.546.253.4.084.364-.084.667.063.324.231.3.59.465.189.243.042.424-.126.931v.485l.232.789.21.465.042.485-.315.849-.821,1.638-.19.728-.042,1.88,1.158,6.734-.042,3.3.358,1.6.842,1.234,1.516.606.652.789.4,3.7.316,1.436.547.707,1.221,1.032.485.707.21.728.316,3.66-.1,2.73.168.809.59,1.476.063.809,2.652,15.428-.063,1.193-.526.243-.674-.021-.547.465,1.031,3.175.59,3.114.126.829.653,2.851.126,1.415-.779,7.2.653,11.2.126,1.193.484,2.346,1.621,4.772.169.95-.421.748-.884.89-1.053.687-.926.061-.548-.586-.316-.971-.358-1.88-.884-1.9-1.158-.243-1.515.3-1.937-.182-1.032-.343-.484-.243-.379-.4-.316-.809-.1-.789-.19-.768-.589-.769-1.474-.485-1.726,2.022-1.432-.02-.758.1-.505.93-.61,2-1.285,1.759-.231.829-.021.91.337,1.86-.063.91-.4,2.124.252.829.337.647,1.074.97.568,1.416,1.853,1.516-.3,1.8-.063,1.941.189,1.9.485,1.718,1.3,1.921.21.486.106.889.842,2.447.315.607.148.485-.105.5-.379.364-.295-.161-.232-.324-.589-.607-1.053-2.426-3.1-5.459-.778-3.034-.3-.485-2.379-1.941-.442-.607-.737-1.375-.505-.748-2.021-2.285-.316-.768-.063-.991.379-3.013-.085-1.132-.252-.89-2.506-4.448-.442-.445-.484-.263-.442-.687-.316-.829-.147-.769h.274l.357.283.337-.829.548-.89.736-.505.843.3-.569-.525-.442-.85-.253-.99v-.87l.4-.526.632-.566.421-.667-.189-.789.694-.788.127-.344-.19-.465.274-.445-.084-.4-.337-.3-.253-.1.295-.91-.169-.1-.61,1.618-.526.667-.758-.02-.358-.546.126-.748.253-.748-.021-.546H552.1l-.232.808-.421-.06-.421-.566-.168-.688.147-1.051.4-.263.59-.122.694-.626-.273-.324-.758.526-.316-.384.274-.708,1.073-.425v-.323l-2.1.162-1.6.485-.421-.405.084-1.112.463-1.011.822-.4-.358-.485.189-.445.484-.364.611-.283v-.344l-.484.04-.421.223-.358.323-.274.425-.253-.586-.21-.971-.211-1.86-.126-.465-.653-.708-.147-.425v-1.779l-1.158-4.813-.084-1.637.484.2-.084-.526-.4.081-.337.607v.909h-.274l-.484-.808-.463-1.032-.274-1.152-.042-1.173.211-.728.821-.809.231-.424-.063-.769-.4-.4-.484-.2-.316-.263-.147-1.173.8-.566,1.179-.344.989-.505.484-.829,1.053-3.357h-.926l-.1.708-.443,1.82.085.364-.316.262-.526.546-.674.546-.8.263-.148.243-1.115.586-.337.465.126.748.484.364.569.2.421.3-.021.91-.779.566-.99-.081-.694-1.051-.8-5.4-.485-1.719-3.073-5.844-5.811-7.845-1.452-.566-.8-.708-.632-.849-.358-.748-.358.182-.3-.223-.21-.485-.084-.607.1-.566.421-.586.295-1.375.716-2,.021-1.132h-.337l-.148.889-.779,2.467-.463.526-.989.3-.632.769-.231,1.051.147,1.132-.7-.505-.673-.3-.758-.141-.99-.04v.343l.969.283.1.445-.442.4-.8.2-2.358.04.821.263.737.324.358.283-.127.687-.589.4-.758.182h-.779l-1.389-.283-.358.04-.063-.182v-.849l-.569-.2-.674-.081-1.557-.021v.3l.568.485.21.526-.315.343-1.053-.04v.344l2.632.667,1.2.485.505.951-.147.606-.358.668-.527,1.819-.926.85-.842.667-1.2.324-2.232.444-1.726-.829-.9-1.274-.485-2.022-.463-.566-.484-.829-.505-1.456-.379-.4-.674.2.674.667.631,1.315.358,1.375-.1.91-.926.444-1.474.223-1.368-.061-.611-.485-.274-.647-1.242-.87-.294-.424-.148-.425-.652-.869-.358-1.355-.506-.2-1.326.1-.21-.263-.548-1.7-.358-.283-.758-.424-.294-.85-.653-.889-.147-.324-.063-.485-.548-1.294-.337-1.618-.358-.829-.421-.708-.336-.788-.127-1.072-.231-.586-3.516-4.61-.484-1.254-.106-.546v-.526l.527-2.891.063-1.962.252-1.051.506-.91.379-.89-.19-.89h.295l-.758-1.556-.042-.627.505-.405-.358-.121.021-.243-1.158.385-.757-.991-.442-1.416-.127-.91.063-2.79.379-1.092,1.116-.667,2.653.02,1.073-.566.021-1.759-.21-.647-.4-.284.4-.586,1.01-.627.464-.485-.337-.546.189-.4.548-.263.694-.081.106-.243-.4-.546-1.2-1.193.4-.384.336-.647.043-.344-.106-.343-.463-.526-.652-.445-.148-.3.084-.425.716-1.051.926-2.346.064-.708-.253-1.031.021-.384.442-.627.59-.445.61-.162,1.39.061.358-.04.884-.405,1.347.849.526.142.421-.222.632-.506,1.726-2.3.927-2,.231-1.173-.189-.91.4-1.132.526-.485.737-.445.884-.971.337-1.011-.884-.505.337-.688-.821-1.132.063-.222-.19-.931.274-.161,1.032-.344,1.515-2,.611.465.337.121.315-.04.127-.384-.084-.546v-.485l.4-.223.884-.081.779-.263.589-.4,3.748,1.881,1.136.2,1.516-1.214.632-.283.526-.08.569.222v.323l-.8.668-1.243.728-.294.323.273.344,1.1.3.295.263-.295.162-.989.2-.316.142-.337.343-.021.809.337.728.21.809-.042.607.148,1.193.463,1.617.652.809-.021.425-.189,1.112Z" fill="#c12745"/>
            <path id="BGD2488" d="M521.7,1071.089l.189-1.112.021-.425-.652-.809-.463-1.617-.148-1.193.042-.607-.21-.809-.337-.728.021-.808.337-.344.316-.142.989-.2.295-.162-.295-.263-1.1-.3-.273-.344.295-.323,1.242-.728.8-.667v-.324l-.569-.222-.526.081-.632.283-1.515,1.213-1.137-.2-3.748-1.881.358-.566.358-.324.674-1.637,1.537-.668.989-.667-.631-.95.505-.526.316-.1.231-.445-.084-.364-.526-.667-.99-.849.758-.526.063-.587-.252-1.132-.548-.243-.505-.04-.337-.2-.358-.405.042-.343.442-.425.4-.546.485-.89.631-1.6-.821-.425-.526-.505-.232-.506-.568-.687-.021-.364,1.052-.506.148-.263.063-.909.484-.809.021-.364-.189-.587-.253-.364-.484-.222-1.39-.061-.821.1-.252-.1-.3-.869.337-2.507-.169-2.144-.315-.991-.59-2.163-5.41.546-1.306-.566-2.968-4.752.505-1.739.4-.809.484-.708.148-.465.021-.647-.674-2.1.126-2.082.4-.041,1.432-.505,7.284-1.133,2.527.081.568-.081.989-.505.485-.021,2.189,1.113,6.737,1.981,1.768.2.443-.06.926-.3,1.01-.182.779-.606.379-.162.8.061.316.364.316.546.737.586.758.182,1.158.04,1.073-.141.463-.445.232-.788.526-.021.99.4.316-.243.273-.586.295-.263.7-.1,2.189.2,4.863-.586,2.527.363,2.063-.626,1.474.06,1.452.344,1.221.465.358.283.442.688.274.263.358.1.652.04.569.324.61-.182.379.06.295.263.674.849.631.526.548.384.61.263.821.182,2.358.324.4.283.716.991,1.284.525,1.137.647.253,1.375,1.158.364v.162l1.473,1.052.421.2.19.222-.379.344,1.116.465.421.4.358.769.147.849-.147.526-.632.95-1.621.425-2.779.889-.442-.06-.337-.142-.189-.242-.043-.364-3.094-1.82-1.748-.566-1.326.566-.232.809.19.849.589,1.557.085.768-.021.748-.106.749-2.315,6.268-.443,1.86-.21,1.638-.232.728-.484.708-.653.505-.694.405-.569.546-.231.909.252,2.912-.168,1.375-.884,1.153-1.158.525-1.326.1-3.79-.324-.063.566,1.031,1.638.043.647-.885-.344-.989-.667-.421-.364-1.011.324-.147.849.484,1.921-.042.93-.989,4.085-.337.829-.569.364-.926-.223-1.389-1.334-.106-.425-.063-1.092-.126-.3-.484-.021-2.885-.606-.463.627.126.91.3.97.021.829-.526.748-.779.283-.884-.121-.821-.505-.421-.728-.8-1.941-.463-.162-.211.566-.484,3.033-.358,1.011-.442.667-.653.425-1.052.3-1.874.223-1.684-.142-3.453-.728-1.895.162-.547,1.233-.084,1.82-.464,1.941-.547.364-.842-.222Z" fill="#c12745"/>
            <path id="BGD3255" d="M447.739,1015.038l-.611,2.588-.421,2.548-.252,4.044.063.4,1.1,5.217.4.951.61,1.172.463.486.779.505,1.348.688.821.748.379.445.294.505.232.89.021,1.011-.505,2.184-.064.525.232.931v.606l-.337,1.213-.505.587-.232.526.127.586.042.89-.063.95-.379,1.5-.042,1.8-.421,3.437v.486l.273,1.84-.021,1.88.042.405,1.684,1.779.632.526.063,1.294.821.2.169.445-.085.445.211.505-.189.688-.085.687.127.081-.442.809-.127,1.7-.337.647-.421.667-.568.505-3.895,3.114-.589,1.476-.19,1.052.127.708.463,2.224v.566l-1.032.263-2.526.222-.737.283-1.369.87-.8.242-1.157-.222-1.832-1.6-1.032-.587-4.063-1.678-1.494-.971-1.074-.444-1.137-.243-1.221-.1-3.769.384-1.242-.222-.989-.445-.969-.607-1.747-1.456-.442-.505-.126-.425.21-1.051v-.506l-.189-.425-.927-1.132-.4-1.193-1.663-1.537-1.052-1.354-.358-.283-.821-.4-.906-.061-.463.587-.61.4-2.927,1.335-.842.182-.884-.142-.358-.182-.674-.465-1.094-.566-.3-.243-.716-1.051-.21-.728.147-.4.526-.749.148-.444-.106-.182-.105-.789-.084-.2-.253-1.881-1.052-1.375-1.495-.869-.968-.223-.485,1.113-.694,1.011-.99.06-2.252-.748-2.948-.121-1.031-.223-3.369-2.588-11.937-6.026-1.326-.283-.084-.323-.421-.708-.569-.687-.063-.243v-2.487l-.126-.3-.674-.648-.442-.99-.758-.3-.863-.242.253-1.456.357-.87.611-.829.21-2.1.506-.2.568-.1.316-.445.063-.667.148-.566.294-.344.59.1.421-.869.631-.607.442-.627-.126-.91-.589-1.658-.211-.424-.252-.243v-.222l2.252-1.193.842-.284.884.081.737.506.653.809.4.93.042.89.547.02,1.916.505.758.061.421-.3.821-1.416,1.579-2,.569-1.112.126-1.274,1.053-1.274.547-1.435.379-3.155-.126-2.729.442-.789,1.558-.263.736.182,1.432.546,1.642.445.505-.121.337-.2.548-.606.421-.162,1.6.061,1.368.242,2.737.991,2.716.263.358-.263.463-1.051.295-.344.378-.061.59.263,3.116,1.052,1.158.081-.674-1.032.842-.182.126-.465-.126-.647.042-.647.4-.526,1.7-1.213.337-.465.106-.485-.106-.465-.337-.384,4.506.141h4.9l1.874.445.147,1.84,1.158,2.467,1.453,1.375,3.031-1.678,2.737.606,4.337,1.375h4.484l3.5.344Z" fill="#c12745"/>
            <path id="BGD5492" d="M453.086,1003.27l-.758.141-.652.4-.4.707-1.032,2.386.4,2.629-.253,1.213-.673.951-.548.606-.421.647-1.01,2.083-3.5-.344H439.76l-4.337-1.375-2.737-.606-3.031,1.678-1.453-1.375-1.158-2.467-.147-1.84-1.874-.445h-4.9l-4.506-.141-2.21.1-1.074-.142-1.031-.97-.948-.061-.463-.121-.337-.263-1.073-1.294-.19-.526-.042-.465-.126-.405-.485-.343-.021-.3.779-1.718-.063-1.032-.421-.627-.568-.505-.548-.647-.4-.324L405,997.952l.042.849-.463.2-.842-.081-.358.061-.484.384-.8.87-.527.141-.947-.222-1.474-.93-.884-.405-1.937-.081-.947-.182-.442-.424-.358-.708-1.221-.91-.463-.971-1.727-.829-.631-.606-.19-2.973-1.2-1.314-3.3-2.164-2.758-3.093-1.474-.728-2.021.566-.758.425-.9.384-.842.04-.59-.586-.315-.93-.211-.425-.716-.768.064-.87-.316-.728-.337-2.163.61-.728.843-2.75.884-1.638,1.137-.87.315-.93-.063-.525-.526-.445-.169-.243-.063-.465.211-.526.505-1.577.379-.586,1.495-.93.4-.344.61-.667.485-.182.947-.2,2.653-.869.8-.485.357-.728-.063-1.76.169-.707.673-.951.7-.606,2.148-1.294.336-.425.211-.445.253-.2.778.425.422.02.8-.142,1.01.162-.105-1.233-.9-2.649-.653-1.052-1.221-.566-2.611-.485-1.052-.445-.337.02-.148.324-.126,1.132-.21.283-.59-.162-.358-.647-.042-.808.253-.648.589-.97.927-3.134.336-.688.548-.91.589-.586.421.263.063.91-.042,1.031.127.971.61.647,1.6.485.737.323.59.668.568.445.863.889.9.607,1.032.424.379.041.968-.02.548.242.547,1.032.379.444.968.526,1.053.243-.189.4-.106.425.127.323.737.283-.064.85.274.364,1.053.525.61.465.1.607-.421.89-.589.485-1.663.809-.337.364.8.546,3.832-1.355,1.642.607.358.748.294.829.442.687.758.344.716-.283.7-1.6.9-.607,1.242.222,2,1.942,1.284.424,2.021-.485.906-.627-.232-.91-.505-.141-.526-.021-.337-.323.168-1.031-.421.262-.421.1-.358-.122-.3-.384-.421-1.395-1.115-.566-1.306-.425-.947-.971-.021-.829.358-.909.568-.83.59-.525.736-.344.422.121.421.4.715.525.527.243.673.769.421.323.506.2.989.243.4.323.211.587-.148.424.064.324.757.323,1.074.3.337.344.021.667-.4.2-.653-.3-.526.06.042,1.315.295.788.9,1.476.337.769.379,2.952.337.869.568.627,3.011,1.274.673.425.464.606.294.931.379.444,1.6.708,1.1,1.234.821.545.926.405.737.081.737-.405.547-.485h.527l.7.991.652.081.253-.081,2.463-.2.653.2.652,1.072.4.525.463.243.611-.121.316-.445.126-.627-.042-.647.379-1.335,2-1.6.379-.829-.337-.607-.59-.02-.631.121-.463-.222v-.566l.505-.4.653-.323.547-.344-.842-.1-.758-.344-.295-.606.484-.89.611-.4.316-.041.947.283.021-.242-.3-.567-.1-1.476.316-.4.99-.324.821.162.252.728-.063,2.062.042.3.548.242.336.041.906-.081.421.04.526.425.274.728.21.789.358.667.59.809.063.606-.106.607.064.849.252.445.927,1.173.61.991.274.08.3-.121.315-.323.232-.041.653.809-.127.667-.652.506-.885.3.864.506.694.06.379.283-.21,1.153-1.958,3.336-.169,1.193.842,4.368,1.032,2.447.463,1.9-.421,3.418-.084,3.639-1.032,3.68-.063.486Z" fill="#c12745"/>
            <path id="_0" data-name="0" d="M403.739,978.4Z" fill="#c12745"/>
            <path id="_1" data-name="1" d="M404.707,978.358Z" fill="#c12745"/>
            <path id="_2" data-name="2" d="M404.054,977.873Z" fill="#c12745"/>
          </g>
          <g id="Group_150" data-name="Group 150">
            <path id="Path_49" data-name="Path 49" d="M359.8,1218.32c-3.028,1.952-6.159,3.8-9.41,5.524-10.967,5.807-32.611,10.558-43.578.9-10.591-9.325-7.075-28.747-6.069-34.3,5.675-31.353,32.033-50.839,61.094-71.71A356.8,356.8,0,0,1,434.85,1078.4q-.746-2.988-1.49-5.976a346.993,346.993,0,0,0-77.486,43.324c-27.527,20.465-51.8,39.032-59.6,70.216-1.738,6.949-7.843,31.353,5.192,44.319,6.7,6.666,16.065,8.137,19.486,8.41,11.073.882,23.161-2.805,33.03-8.031a133.289,133.289,0,0,0,11.6-6.927C363.628,1221.921,361.712,1220.12,359.8,1218.32Z" fill="#fff"/>
            <path id="Path_50" data-name="Path 50" d="M726.439,1033.878l-6.122,4.66c20.509,27.083,25.865,65.078,13.647,96.8s-41.656,56.245-75,62.48c-44.979,8.41-94.39-19.324-110.141-61.82-11.548-31.163-6.4-65.934-1.412-99.56.568-3.835,1.135-7.657,1.675-11.46,5.047-35.528,7.705-80.462-16.748-112.841-8.9-11.787-24.209-22.986-40.494-19.057-14.969,3.612-25.186,18.327-30.37,43.736-.214,1.05-.406,2.107-.613,3.159,1.662,1.954,3.229,3.887,4.651,5.762.807-.773,1.651-1.554,2.515-2.338.324-1.681.636-3.366.977-5.038,4.534-22.224,12.823-34.938,24.64-37.789,12.687-3.065,25.473,6.823,32.565,16.217,11.945,15.816,24.476,42.283,15.268,107.1-.539,3.788-1.1,7.593-1.668,11.413-5.127,34.589-10.428,70.357,1.81,103.376,8.3,22.4,25.221,41.635,47.645,54.173,22.33,12.485,47.579,16.937,71.109,12.538,35.9-6.713,67.6-33.122,80.76-67.277S748.523,1063.042,726.439,1033.878Z" fill="#fff"/>
          </g>
          <g id="Group_151" data-name="Group 151">
            <ellipse id="Ellipse_23" data-name="Ellipse 23" cx="31.077" cy="31.157" rx="31.077" ry="31.157" transform="translate(432.448 1037.689)" fill="#fff"/>
            <path id="Path_51" data-name="Path 51" d="M465.991,1037.787a30.824,30.824,0,0,0-15.855,2.969,31.156,31.156,0,0,1,7.972,58.762c.968.171,1.951.307,2.951.386a31.156,31.156,0,0,0,4.932-62.117Z" fill="#fff"/>
            <ellipse id="Ellipse_24" data-name="Ellipse 24" cx="25.905" cy="25.971" rx="25.905" ry="25.971" transform="translate(437.62 1042.874)" fill="#fff"/>
            <path id="Path_52" data-name="Path 52" d="M465.58,1042.956a25.823,25.823,0,0,0-7.262.462,31.144,31.144,0,0,1,6.976,51.309,25.96,25.96,0,0,0,.286-51.771Z" fill="#fff"/>
            <ellipse id="Ellipse_25" data-name="Ellipse 25" cx="19.996" cy="20.048" rx="19.996" ry="20.048" transform="translate(443.528 1048.798)" fill="#fff"/>
            <path id="Path_53" data-name="Path 53" d="M483.458,1070.436a20.019,20.019,0,0,0-17.188-21.423,31.038,31.038,0,0,1,5.172,38.237A20.033,20.033,0,0,0,483.458,1070.436Z" fill="#fff"/>
          </g>
        </g>
      </g>
    </g>
    <g id="Group_157" data-name="Group 157">
      <path id="Path_60" data-name="Path 60" d="M359.439,1216.959c-3.029,1.953-6.159,3.8-9.41,5.525-10.967,5.807-32.612,10.558-43.578.9-10.592-9.325-7.076-28.747-6.07-34.3,5.676-31.353,32.034-50.839,61.1-71.709a356.853,356.853,0,0,1,73.015-40.337q-.744-2.986-1.49-5.975a346.977,346.977,0,0,0-77.486,43.324c-27.526,20.465-51.8,39.032-59.6,70.215-1.739,6.95-7.844,31.353,5.192,44.32,6.7,6.665,16.064,8.137,19.485,8.409,11.074.883,23.162-2.8,33.031-8.031a133.13,133.13,0,0,0,11.6-6.927C363.27,1220.56,361.354,1218.76,359.439,1216.959Z" fill="#2f2e2e"/>
      <path id="Path_61" data-name="Path 61" d="M726.081,1032.518l-6.123,4.66c20.509,27.083,25.866,65.078,13.648,96.8s-41.656,56.244-75,62.48c-44.979,8.409-94.39-19.325-110.141-61.821-11.548-31.162-6.4-65.933-1.412-99.56.568-3.835,1.135-7.656,1.675-11.46,5.047-35.528,7.7-80.461-16.748-112.84-8.9-11.788-24.21-22.987-40.494-19.057-14.969,3.612-25.187,18.327-30.37,43.736-.214,1.049-.406,2.107-.613,3.159,1.662,1.954,3.229,3.887,4.65,5.761.808-.772,1.652-1.553,2.516-2.338.323-1.68.636-3.365.977-5.038,4.534-22.223,12.823-34.937,24.64-37.788,12.687-3.065,25.472,6.823,32.565,16.217,11.945,15.816,24.476,42.283,15.268,107.1-.539,3.787-1.1,7.593-1.669,11.412-5.127,34.59-10.427,70.358,1.811,103.377,8.3,22.4,25.221,41.634,47.645,54.172,22.329,12.486,47.579,16.938,71.109,12.539,35.9-6.714,67.6-33.122,80.76-67.278S748.164,1061.682,726.081,1032.518Z" fill="#2f2e2e"/>
    </g>
    <g id="Group_162" data-name="Group 162">
      <g id="Group_158" data-name="Group 158">
        <path id="Path_62" data-name="Path 62" d="M611.595,981.039a307.884,307.884,0,0,1-19-35.73c-11.92-26.667-16.038-47.449-12.241-61.769a26.577,26.577,0,0,1,13.7-17.494l1.067,2.05a24.349,24.349,0,0,0-12.535,16.037c-3.6,13.6.58,34.413,12.1,60.2a305.7,305.7,0,0,0,18.851,35.456Z" fill="#85878a"/>
      </g>
      <path id="Path_63" data-name="Path 63" d="M590.536,871.168a25.172,25.172,0,0,1,4.58-3.072l-1.067-2.05a27.781,27.781,0,0,0-4.606,3.021Z" fill="#d1d0cf"/>
      <path id="Path_64" data-name="Path 64" d="M597.859,868.665l-3.846,2.012a1.54,1.54,0,0,1-2.074-.654l-1.228-2.36a1.547,1.547,0,0,1,.651-2.079l3.846-2.012a1.539,1.539,0,0,1,2.074.654l1.228,2.359A1.548,1.548,0,0,1,597.859,868.665Z" fill="#2f2e2e"/>
      <path id="Path_65" data-name="Path 65" d="M595.208,863.572l-3.846,2.012a1.526,1.526,0,0,0-.8,1.281l2.764-1.446a1.539,1.539,0,0,1,2.074.654l1.228,2.36a1.5,1.5,0,0,1,.145.8l1.082-.566a1.548,1.548,0,0,0,.651-2.08l-1.228-2.36A1.54,1.54,0,0,0,595.208,863.572Z" fill="#1f1f1f"/>
      <path id="Path_66" data-name="Path 66" d="M597.963,869.373a1.545,1.545,0,0,0,2.45.393,5.147,5.147,0,0,0-4.644-8.925,1.552,1.552,0,0,0-1.081,2.24Z" fill="#2f2e2e"/>
      <path id="Path_67" data-name="Path 67" d="M595.769,860.841a1.545,1.545,0,0,0-1.157,2.038,1.505,1.505,0,0,1,.356-.112,5.41,5.41,0,0,1,5.919,2.58,4.892,4.892,0,0,1,.428,3.277,5.2,5.2,0,0,0,.373-5.2A5.41,5.41,0,0,0,595.769,860.841Z" fill="#1f1f1f"/>
      <path id="Path_68" data-name="Path 68" d="M590.536,871.168a25.172,25.172,0,0,1,4.58-3.072l-1.067-2.05a27.781,27.781,0,0,0-4.606,3.021Z" fill="#d1d0cf"/>
      <path id="Path_69" data-name="Path 69" d="M597.859,868.665l-3.846,2.012a1.54,1.54,0,0,1-2.074-.654l-1.228-2.36a1.547,1.547,0,0,1,.651-2.079l3.846-2.012a1.539,1.539,0,0,1,2.074.654l1.228,2.359A1.548,1.548,0,0,1,597.859,868.665Z" fill="#2f2e2e"/>
      <path id="Path_70" data-name="Path 70" d="M595.208,863.572l-3.846,2.012a1.526,1.526,0,0,0-.8,1.281l2.764-1.446a1.539,1.539,0,0,1,2.074.654l1.228,2.36a1.5,1.5,0,0,1,.145.8l1.082-.566a1.548,1.548,0,0,0,.651-2.08l-1.228-2.36A1.54,1.54,0,0,0,595.208,863.572Z" fill="#1f1f1f"/>
      <path id="Path_71" data-name="Path 71" d="M597.963,869.373a1.545,1.545,0,0,0,2.45.393,5.147,5.147,0,0,0-4.644-8.925,1.552,1.552,0,0,0-1.081,2.24Z" fill="#2f2e2e"/>
      <path id="Path_72" data-name="Path 72" d="M595.769,860.841a1.545,1.545,0,0,0-1.157,2.038,1.505,1.505,0,0,1,.356-.112,5.41,5.41,0,0,1,5.919,2.58,4.892,4.892,0,0,1,.428,3.277,5.2,5.2,0,0,0,.373-5.2A5.41,5.41,0,0,0,595.769,860.841Z" fill="#1f1f1f"/>
      <g id="Group_159" data-name="Group 159">
        <path id="Path_73" data-name="Path 73" d="M750.93,908.147a308.211,308.211,0,0,0-18.364-36.064c-15-25.055-29.648-40.329-43.535-45.4a26.457,26.457,0,0,0-22.148,1.258l1.067,2.049a24.245,24.245,0,0,1,20.291-1.135c13.185,4.811,27.823,20.161,42.332,44.39A305.451,305.451,0,0,1,748.8,909.031Z" fill="#85878a"/>
      </g>
      <path id="Path_74" data-name="Path 74" d="M673.083,827.984a25.185,25.185,0,0,0-5.133,2.009l-1.067-2.049a27.708,27.708,0,0,1,5.107-2.06Z" fill="#d1d0cf"/>
      <path id="Path_75" data-name="Path 75" d="M666.846,832.574l3.846-2.011a1.548,1.548,0,0,0,.652-2.08l-1.228-2.36a1.54,1.54,0,0,0-2.074-.653l-3.846,2.012a1.547,1.547,0,0,0-.652,2.079l1.228,2.36A1.539,1.539,0,0,0,666.846,832.574Z" fill="#2f2e2e"/>
      <path id="Path_76" data-name="Path 76" d="M664.2,827.482l3.846-2.012a1.512,1.512,0,0,1,1.5.078l-2.764,1.446a1.547,1.547,0,0,0-.651,2.079l1.228,2.36a1.5,1.5,0,0,0,.57.576l-1.082.565a1.539,1.539,0,0,1-2.074-.653l-1.228-2.36A1.547,1.547,0,0,1,664.2,827.482Z" fill="#1f1f1f"/>
      <path id="Path_77" data-name="Path 77" d="M667.367,833.065a1.553,1.553,0,0,1-1.081,2.24,5.146,5.146,0,0,1-4.645-8.924,1.546,1.546,0,0,1,2.451.392Z" fill="#2f2e2e"/>
      <path id="Path_78" data-name="Path 78" d="M661.641,826.381a1.537,1.537,0,0,1,2.329.214,1.55,1.55,0,0,0-.3.228,5.44,5.44,0,0,0-1.274,6.344,4.868,4.868,0,0,0,2.436,2.226,5.169,5.169,0,0,1-4.47-2.668A5.44,5.44,0,0,1,661.641,826.381Z" fill="#1f1f1f"/>
      <g id="Group_160" data-name="Group 160">
        <path id="Path_79" data-name="Path 79" d="M728.42,1035.165c-40.074,20.965-94.329-3.583-120.944-54.72l8.178-4.277c24.262,46.616,72.934,69.4,108.5,50.8s44.761-71.668,20.5-118.284l8.178-4.278C779.445,955.542,768.494,1014.2,728.42,1035.165Z" fill="#2f2e2e"/>
      </g>
      <g id="Group_161" data-name="Group 161">
        <path id="Path_80" data-name="Path 80" d="M719.872,1029.207c.718-.376,1.407-.788,2.1-1.191-35.351,16.6-82.55-6.173-106.322-51.848l-4.282,2.239C635.634,1025.023,684.307,1047.812,719.872,1029.207Z" fill="#1f1f1f"/>
        <path id="Path_81" data-name="Path 81" d="M748.548,906.645c26.138,50.221,16.024,107.67-22.3,129.571.726-.347,1.458-.675,2.176-1.051,40.074-20.964,51.025-79.623,24.41-130.76Z" fill="#1f1f1f"/>
      </g>
    </g>
    <g id="Group_163" data-name="Group 163">
      <ellipse id="Ellipse_26" data-name="Ellipse 26" cx="31.077" cy="31.157" rx="31.077" ry="31.157" transform="translate(433.923 1037.207)" fill="#2f2e2e"/>
      <path id="Path_82" data-name="Path 82" d="M467.466,1037.305a30.824,30.824,0,0,0-15.855,2.969,31.156,31.156,0,0,1,7.972,58.762c.969.171,1.951.307,2.951.386a31.156,31.156,0,0,0,4.932-62.117Z" fill="#1f1f1f"/>
      <ellipse id="Ellipse_27" data-name="Ellipse 27" cx="25.905" cy="25.971" rx="25.905" ry="25.971" transform="translate(439.095 1042.392)" fill="#d1d0cf"/>
      <path id="Path_83" data-name="Path 83" d="M467.055,1042.474a25.818,25.818,0,0,0-7.261.462,31.145,31.145,0,0,1,6.976,51.309,25.961,25.961,0,0,0,.285-51.771Z" fill="#bfbaba"/>
      <ellipse id="Ellipse_28" data-name="Ellipse 28" cx="19.996" cy="20.048" rx="19.996" ry="20.048" transform="translate(445.004 1048.316)" fill="#fff"/>
      <path id="Path_84" data-name="Path 84" d="M484.933,1069.954a20.019,20.019,0,0,0-17.188-21.423,31.038,31.038,0,0,1,5.172,38.237A20.033,20.033,0,0,0,484.933,1069.954Z" fill="#f0f0f0"/>
    </g>
    <ellipse id="Ellipse_29" data-name="Ellipse 29" cx="53.313" cy="31.677" rx="53.313" ry="31.677" transform="translate(292.35 997.594) rotate(-46.586)" fill="#fff" opacity="0.4"/>
  </g>
</svg>
